<svg width="23" height="24" viewBox="0 0 23 24" fill="none" xmlns="http://www.w3.org/2000/svg">
<path d="M11.5 2C9.64581 2 7.83324 2.58649 6.29153 3.6853C4.74982 4.78412 3.54821 6.3459 2.83863 8.17317C2.12906 10.0004 1.94341 12.0111 2.30514 13.9509C2.66688 15.8907 3.55976 17.6725 4.87088 19.0711C6.182 20.4696 7.85246 21.422 9.67103 21.8079C11.4896 22.1937 13.3746 21.9957 15.0877 21.2388C16.8007 20.4819 18.2649 19.2002 19.295 17.5557C20.3252 15.9112 20.875 13.9778 20.875 12C20.875 10.6868 20.6325 9.38642 20.1614 8.17317C19.6902 6.95991 18.9997 5.85752 18.1291 4.92893C17.2586 4.00035 16.2251 3.26375 15.0877 2.7612C13.9502 2.25866 12.7311 2 11.5 2ZM11.5 20C10.0166 20 8.5666 19.5308 7.33323 18.6518C6.09986 17.7727 5.13857 16.5233 4.57091 15.0615C4.00325 13.5997 3.85473 11.9911 4.14412 10.4393C4.4335 8.88743 5.14781 7.46197 6.1967 6.34315C7.2456 5.22433 8.58197 4.4624 10.0368 4.15372C11.4917 3.84504 12.9997 4.00346 14.3701 4.60896C15.7406 5.21447 16.9119 6.23985 17.736 7.55544C18.5601 8.87103 19 10.4178 19 12C19 14.1217 18.2098 16.1566 16.8033 17.6569C15.3968 19.1571 13.4891 20 11.5 20ZM15.25 11H12.4375V8C12.4375 7.73478 12.3387 7.48043 12.1629 7.29289C11.9871 7.10536 11.7486 7 11.5 7C11.2514 7 11.0129 7.10536 10.8371 7.29289C10.6613 7.48043 10.5625 7.73478 10.5625 8V11H7.75C7.50136 11 7.26291 11.1054 7.08709 11.2929C6.91128 11.4804 6.8125 11.7348 6.8125 12C6.8125 12.2652 6.91128 12.5196 7.08709 12.7071C7.26291 12.8946 7.50136 13 7.75 13H10.5625V16C10.5625 16.2652 10.6613 16.5196 10.8371 16.7071C11.0129 16.8946 11.2514 17 11.5 17C11.7486 17 11.9871 16.8946 12.1629 16.7071C12.3387 16.5196 12.4375 16.2652 12.4375 16V13H15.25C15.4986 13 15.7371 12.8946 15.9129 12.7071C16.0887 12.5196 16.1875 12.2652 16.1875 12C16.1875 11.7348 16.0887 11.4804 15.9129 11.2929C15.7371 11.1054 15.4986 11 15.25 11Z" fill="white"/>
</svg>
