<svg width="18" height="17" viewBox="0 0 18 17" fill="none" xmlns="http://www.w3.org/2000/svg">
<g clip-path="url(#clip0_1661_18045)">
<path d="M13.3554 1.7L13.5635 1.70046V1.7C13.5635 1.3524 13.2841 1.06688 12.9348 1.06688H3.68228C3.33302 1.06688 3.05359 1.3524 3.05359 1.7V15.3C3.05359 15.6476 3.33301 15.9331 3.68228 15.9331H12.9348C13.2833 15.9331 13.5622 15.649 13.5635 15.3025L13.5636 15.3L13.5639 15.2867L13.565 15.2362L13.5689 15.0547L13.581 14.4949C13.5897 14.0841 13.5986 13.6511 13.5986 13.5825C13.5986 13.5835 13.5986 13.5833 13.5989 13.5818C13.5997 13.5768 13.6032 13.5572 13.6166 13.5254C13.6322 13.4883 13.6568 13.4455 13.6908 13.4057C13.7566 13.329 13.8551 13.2648 14.0038 13.2648C14.1438 13.2648 14.2413 13.3318 14.311 13.4189C14.3465 13.4634 14.3726 13.5108 14.3896 13.5512C14.4055 13.5891 14.4086 13.6093 14.4091 13.6092C14.4092 13.6092 14.4091 13.6083 14.4091 13.6065C14.4106 13.6546 14.4106 14.074 14.4102 14.4892L14.4094 15.0488L14.4091 15.2309L14.409 15.2817L14.409 15.295L14.409 15.2984L14.409 15.2993V15.2995L14.409 15.2996L14.6171 15.3L14.409 15.2996V15.3C14.409 16.126 13.7469 16.7919 12.9348 16.7919H3.68228C2.87017 16.7919 2.20812 16.126 2.20812 15.3V1.7C2.20812 0.873996 2.87017 0.208119 3.68228 0.208119H12.9348C13.7469 0.208119 14.409 0.873995 14.409 1.7H14.6171L14.409 1.70002V1.70007V1.70015V1.70027V1.70043V1.70062V1.70084V1.70109V1.70138V1.7017V1.70206V1.70245V1.70287V1.70332V1.70381V1.70433V1.70488V1.70547V1.70608V1.70673V1.70741V1.70812V1.70887V1.70964V1.71045V1.71129V1.71216V1.71306V1.71399V1.71496V1.71595V1.71697V1.71803V1.71911V1.72023V1.72137V1.72255V1.72375V1.72499V1.72625V1.72755V1.72887V1.73022V1.7316V1.73301V1.73445V1.73592V1.73742V1.73894V1.74049V1.74208V1.74368V1.74532V1.74699V1.74868V1.7504V1.75215V1.75392V1.75573V1.75755V1.75941V1.76129V1.7632V1.76514V1.7671V1.76909V1.77111V1.77315V1.77521V1.77731V1.77943V1.78157V1.78374V1.78593V1.78815V1.7904V1.79267V1.79496V1.79728V1.79963V1.802V1.80439V1.80681V1.80925V1.81171V1.8142V1.81671V1.81925V1.82181V1.82439V1.82699V1.82962V1.83227V1.83495V1.83765V1.84036V1.84311V1.84587V1.84866V1.85146V1.85429V1.85715V1.86002V1.86291V1.86583V1.86877V1.87173V1.87471V1.87771V1.88073V1.88377V1.88683V1.88991V1.89302V1.89614V1.89928V1.90245V1.90563V1.90883V1.91205V1.9153V1.91856V1.92183V1.92513V1.92845V1.93179V1.93514V1.93851V1.94191V1.94532V1.94874V1.95219V1.95565V1.95913V1.96263V1.96615V1.96968V1.97323V1.9768V1.98039V1.98399V1.98761V1.99124V1.9949V1.99856V2.00225V2.00595V2.00966V2.0134V2.01714V2.02091V2.02469V2.02848V2.03229V2.03611V2.03995V2.04381V2.04768V2.05156V2.05546V2.05937V2.0633V2.06724V2.07119V2.07516V2.07914V2.08314V2.08714V2.09117V2.0952V2.09925V2.10331V2.10739V2.11147V2.11557V2.11968V2.12381V2.12794V2.13209V2.13625V2.14042V2.14461V2.1488V2.15301V2.15723V2.16146V2.1657V2.16995V2.17421V2.17848V2.18277V2.18706V2.19136V2.19568V2.2V2.20433V2.20868V2.21303V2.21739V2.22177V2.22615V2.23054V2.23494V2.23935V2.24376V2.24819V2.25262V2.25707V2.26152V2.26598V2.27044V2.27492V2.2794V2.28389V2.28839V2.29289V2.29741V2.30193V2.30645V2.31099V2.31553V2.32007V2.32463V2.32919V2.33375V2.33832V2.3429V2.34749V2.35208V2.35667V2.36127V2.36588V2.37049V2.37511V2.37973V2.38435V2.38899V2.39362V2.39826V2.40291V2.40755V2.41221V2.41686V2.42152V2.42619V2.43086V2.43553V2.4402V2.44488V2.44956V2.45425V2.45893V2.46362V2.46831V2.47301V2.47771V2.48241V2.48711V2.49181V2.49651V2.50122V2.50593V2.51064V2.51535V2.52006V2.52478V2.52949V2.53421V2.53892V2.54364V2.54835V2.55307V2.55779V2.56251V2.56722V2.57194V2.57666V2.58137V2.58609V2.5908V2.59552V2.60023V2.60494V2.60966V2.61437V2.61907V2.62378V2.62848V2.63319V2.63789V2.64259V2.64729V2.65198V2.65667V2.66136V2.66605V2.67073V2.67541V2.68009V2.68477V2.68944V2.69411V2.69877V2.70343V2.70809V2.71274V2.71739V2.72203V2.72667V2.73131V2.73594V2.74057V2.74519V2.7498V2.75441V2.75902V2.76362V2.76822V2.77281V2.77739V2.78197V2.78654V2.79111V2.79567V2.80022V2.80477V2.80931V2.81384V2.81837V2.82289V2.8274V2.8319V2.8364V2.84089V2.84537V2.84985V2.85431V2.85877V2.86322V2.86767V2.8721V2.87653V2.88094V2.88535V2.88975V2.89414V2.89852V2.90289V2.90726V2.91161V2.91595V2.92029V2.92461V2.92892V2.93323V2.93752V2.9418V2.94608V2.95034V2.95459V2.95883V2.96306V2.96728V2.97148V2.97568V2.97986V2.98403V2.98819V2.99234V2.99648V3.0006V3.00471V3.00881V3.0129V3.01697V3.02103V3.02508V3.02911V3.03314V3.03715V3.04114V3.04512V3.04909V3.05304V3.05698V3.06091V3.06482V3.06872V3.0726V3.07647V3.08033V3.08416V3.08799V3.0918V3.09559V3.09937V3.10313V3.10688V3.11061V3.11433V3.11803V3.12171V3.12538V3.12903V3.13267V3.13628V3.13989V3.14347V3.14704V3.15059V3.15412V3.15764V3.16114V3.16462V3.16808V3.17153V3.17495V3.17836V3.18176V3.18513V3.18848V3.19182V3.19514V3.19843V3.20171V3.20497V3.20821V3.21143V3.21464V3.21782V3.22098V3.22412V3.22725V3.23035V3.23343V3.23649V3.23954V3.24256V3.24556V3.24854V3.25149V3.25443V3.25735V3.26024V3.26311V3.26597V3.2688V3.2716V3.27439V3.27715V3.27989V3.28261V3.28531V3.28798V3.29063V3.29326V3.29587V3.29845V3.30101V3.30354V3.30605V3.30854V3.31101V3.31345V3.31586V3.31825V3.32062V3.32297V3.32529V3.32758V3.32985V3.33209V3.33431V3.33651V3.33868V3.34082V3.34294V3.34503V3.3471V3.34914V3.35115V3.35314V3.3551V3.35704V3.35895V3.36083V3.36269V3.36452V3.36632V3.36809V3.36984V3.37156V3.37325V3.37492V3.37655V3.37816V3.37974V3.38129V3.38282V3.38432V3.38578V3.38722V3.38863V3.39001V3.39136V3.39269V3.39398V3.39524V3.39648V3.39768V3.39886V3.4C14.409 3.39944 14.409 3.39947 14.4089 3.4001C14.4083 3.40313 14.405 3.42011 14.3866 3.45053C14.366 3.48463 14.3332 3.52404 14.2897 3.56183C14.1998 3.64001 14.0909 3.68893 13.9981 3.69144C13.9023 3.69403 13.7883 3.6483 13.6931 3.57008C13.647 3.53227 13.6118 3.49193 13.5894 3.45619C13.5783 3.43853 13.5714 3.42378 13.5675 3.41265C13.5636 3.40138 13.5635 3.39624 13.5635 3.3967C13.5619 3.29507 13.5619 2.87263 13.5623 2.47228L13.563 1.93677L13.5634 1.76495L13.5635 1.71725L13.5635 1.70474L13.5635 1.70154L13.5635 1.70073V1.70053V1.70048L13.3554 1.7Z" fill="#999999" stroke="#999999" stroke-width="0.416237" stroke-linejoin="round"/>
<path d="M4.97656 3.15479H11.6364" stroke="#999999" stroke-width="1.31443" stroke-linecap="round" stroke-linejoin="round"/>
<path d="M4.97656 6.0459C5.03776 6.0459 8.21512 6.0459 9.79615 6.0459" stroke="#999999" stroke-width="1.31443" stroke-linecap="round" stroke-linejoin="round"/>
<path d="M4.97656 8.93848H6.99203" stroke="#999999" stroke-width="1.31443" stroke-linecap="round" stroke-linejoin="round"/>
<path d="M4.97656 14.0643H6.37469C6.40446 14.0643 6.43219 14.0492 6.44832 14.0242L7.21666 12.8333C7.25318 12.7767 7.33726 12.7807 7.36816 12.8406L7.97527 14.0169C7.99031 14.046 8.02036 14.0643 8.05314 14.0643H9.62089" stroke="#999999" stroke-width="1.31443" stroke-linecap="round" stroke-linejoin="round"/>
<path d="M9.88249 10.0028L9.47243 12.0861C9.46104 12.144 9.50894 12.1963 9.56761 12.1902L11.8271 11.9517C11.8479 11.9495 11.8672 11.94 11.8815 11.9248L17.2485 6.25242C17.4675 5.98953 17.3799 5.02561 16.9856 4.63128C16.6384 4.28414 15.5397 4.3684 15.3206 4.54365L9.9065 9.95778C9.89421 9.97008 9.88585 9.98576 9.88249 10.0028Z" stroke="#999999" stroke-width="1.31443" stroke-linecap="round" stroke-linejoin="round"/>
</g>
<defs>
<clipPath id="clip0_1661_18045">
<rect width="18" height="17" fill="white"/>
</clipPath>
</defs>
</svg>
