<svg width="24" height="24" viewBox="0 0 24 24" fill="none" xmlns="http://www.w3.org/2000/svg">
<path d="M16.8696 18H7.13043V19.3333H16.8696V18Z" fill="#BD9B60"/>
<path d="M16.8696 15.3333H7.13043V16.6667H16.8696V15.3333Z" fill="#BD9B60"/>
<path d="M16.1739 10.8889C16.1739 9.80422 15.4936 8.87044 14.5213 8.45422C14.6873 8.11289 14.7826 7.734 14.7826 7.33333C14.7826 5.86289 13.5344 4.66667 12 4.66667C10.4656 4.66667 9.21739 5.86289 9.21739 7.33333C9.21739 7.734 9.3127 8.11289 9.47872 8.45422C8.50643 8.87044 7.82609 9.80422 7.82609 10.8889V14H16.1739V10.8889ZM12 6C12.7673 6 13.3913 6.598 13.3913 7.33333C13.3913 8.06867 12.7673 8.66667 12 8.66667C11.2327 8.66667 10.6087 8.06867 10.6087 7.33333C10.6087 6.598 11.2327 6 12 6ZM14.7826 12.6667H9.21739V10.8889C9.21739 10.1967 9.7709 9.626 10.4763 9.562C10.9143 9.838 11.4374 10 12 10C12.5626 10 13.0857 9.838 13.5237 9.562C14.2291 9.626 14.7826 10.1967 14.7826 10.8889V12.6667Z" fill="#BD9B60"/>
<path d="M19.3043 2H4.69565C4.31142 2 4 2.29844 4 2.66667V21.3333C4 21.7016 4.31142 22 4.69565 22H19.3043C19.6886 22 20 21.7016 20 21.3333V2.66667C20 2.29844 19.6886 2 19.3043 2ZM18.6087 20.6667H5.3913V3.33333H18.6087V20.6667Z" fill="#BD9B60"/>
</svg>
