<svg width="21" height="21" viewBox="0 0 21 21" fill="none" xmlns="http://www.w3.org/2000/svg">
<path d="M14.0273 2.1L14.2843 2.10057V2.1C14.2843 1.67061 13.9392 1.31791 13.5077 1.31791H2.07811C1.64667 1.31791 1.3015 1.67061 1.3015 2.1V18.9C1.3015 19.3294 1.64666 19.6821 2.07811 19.6821H13.5077C13.9381 19.6821 14.2827 19.3311 14.2843 18.9031L14.2844 18.9L14.2848 18.8836L14.2861 18.8211L14.291 18.5969L14.3059 17.9055C14.3167 17.398 14.3276 16.8631 14.3276 16.7784C14.3276 16.7796 14.3277 16.7794 14.328 16.7776C14.3291 16.7714 14.3334 16.7471 14.3499 16.7079C14.3691 16.662 14.3995 16.6092 14.4416 16.56C14.5228 16.4653 14.6445 16.386 14.8282 16.386C15.0012 16.386 15.1216 16.4688 15.2077 16.5763C15.2516 16.6312 15.2838 16.6899 15.3048 16.7398C15.3244 16.7866 15.3283 16.8115 15.3289 16.8114C15.329 16.8114 15.3289 16.8103 15.3289 16.808C15.3307 16.8675 15.3308 17.3855 15.3303 17.8985L15.3293 18.5897L15.3289 18.8146L15.3288 18.8773L15.3288 18.8938L15.3287 18.898L15.3287 18.8991V18.8994V18.8995L15.5858 18.9L15.3287 18.8995V18.9C15.3287 19.9204 14.5109 20.7429 13.5077 20.7429H2.07811C1.07492 20.7429 0.257088 19.9204 0.257088 18.9V2.1C0.257088 1.07964 1.07492 0.257088 2.07811 0.257088H13.5077C14.5109 0.257088 15.3287 1.07964 15.3287 2.1H15.5858L15.3287 2.10002V2.10009V2.10019V2.10034V2.10053V2.10076V2.10104V2.10135V2.10171V2.1021V2.10254V2.10302V2.10354V2.1041V2.10471V2.10535V2.10603V2.10675V2.10751V2.10831V2.10916V2.11004V2.11096V2.11191V2.11291V2.11395V2.11502V2.11613V2.11729V2.11848V2.1197V2.12097V2.12227V2.12361V2.12499V2.1264V2.12785V2.12934V2.13087V2.13243V2.13403V2.13566V2.13733V2.13904V2.14078V2.14256V2.14437V2.14622V2.1481V2.15002V2.15198V2.15396V2.15599V2.15804V2.16013V2.16226V2.16442V2.16661V2.16884V2.1711V2.17339V2.17572V2.17807V2.18047V2.18289V2.18535V2.18784V2.19036V2.19291V2.1955V2.19811V2.20076V2.20344V2.20615V2.2089V2.21167V2.21447V2.21731V2.22017V2.22307V2.226V2.22895V2.23194V2.23495V2.238V2.24107V2.24417V2.24731V2.25047V2.25366V2.25688V2.26012V2.2634V2.2667V2.27003V2.27339V2.27678V2.28019V2.28363V2.2871V2.2906V2.29412V2.29767V2.30125V2.30485V2.30848V2.31213V2.31581V2.31952V2.32325V2.32701V2.33079V2.3346V2.33843V2.34229V2.34617V2.35008V2.35401V2.35797V2.36195V2.36595V2.36998V2.37403V2.37811V2.3822V2.38632V2.39047V2.39464V2.39883V2.40304V2.40727V2.41153V2.41581V2.42011V2.42443V2.42877V2.43314V2.43753V2.44193V2.44636V2.45081V2.45528V2.45977V2.46428V2.46881V2.47336V2.47794V2.48253V2.48714V2.49177V2.49641V2.50108V2.50577V2.51048V2.5152V2.51994V2.5247V2.52948V2.53428V2.53909V2.54393V2.54878V2.55364V2.55853V2.56343V2.56835V2.57329V2.57824V2.58321V2.58819V2.59319V2.59821V2.60324V2.60829V2.61335V2.61843V2.62353V2.62864V2.63376V2.6389V2.64405V2.64922V2.6544V2.6596V2.66481V2.67004V2.67527V2.68052V2.68579V2.69107V2.69636V2.70166V2.70698V2.71231V2.71765V2.723V2.72837V2.73374V2.73913V2.74453V2.74995V2.75537V2.7608V2.76625V2.77171V2.77717V2.78265V2.78814V2.79364V2.79915V2.80466V2.81019V2.81573V2.82128V2.82683V2.8324V2.83797V2.84356V2.84915V2.85475V2.86036V2.86597V2.8716V2.87723V2.88287V2.88852V2.89417V2.89984V2.90551V2.91118V2.91687V2.92256V2.92825V2.93395V2.93966V2.94538V2.9511V2.95683V2.96256V2.96829V2.97404V2.97978V2.98554V2.99129V2.99706V3.00282V3.00859V3.01437V3.02015V3.02593V3.03172V3.03751V3.0433V3.04909V3.05489V3.0607V3.0665V3.07231V3.07812V3.08393V3.08974V3.09556V3.10138V3.1072V3.11302V3.11884V3.12466V3.13049V3.13631V3.14214V3.14797V3.15379V3.15962V3.16545V3.17128V3.1771V3.18293V3.18876V3.19458V3.20041V3.20623V3.21205V3.21787V3.22369V3.22951V3.23533V3.24114V3.24695V3.25276V3.25857V3.26437V3.27018V3.27598V3.28177V3.28756V3.29335V3.29914V3.30492V3.3107V3.31648V3.32225V3.32801V3.33377V3.33953V3.34528V3.35103V3.35677V3.36251V3.36824V3.37397V3.37969V3.3854V3.39111V3.39682V3.40251V3.4082V3.41389V3.41956V3.42523V3.43089V3.43655V3.4422V3.44784V3.45347V3.45909V3.46471V3.47032V3.47592V3.48151V3.48709V3.49267V3.49823V3.50379V3.50934V3.51487V3.5204V3.52592V3.53143V3.53692V3.54241V3.54789V3.55336V3.55881V3.56426V3.56969V3.57512V3.58053V3.58593V3.59132V3.5967V3.60206V3.60741V3.61275V3.61808V3.6234V3.6287V3.63399V3.63927V3.64454V3.64979V3.65502V3.66025V3.66546V3.67065V3.67584V3.681V3.68616V3.6913V3.69642V3.70153V3.70662V3.7117V3.71677V3.72181V3.72685V3.73186V3.73686V3.74185V3.74682V3.75177V3.7567V3.76162V3.76652V3.77141V3.77627V3.78112V3.78596V3.79077V3.79557V3.80035V3.80511V3.80985V3.81457V3.81928V3.82397V3.82863V3.83328V3.83791V3.84252V3.84711V3.85168V3.85623V3.86076V3.86527V3.86976V3.87423V3.87868V3.88311V3.88752V3.8919V3.89627V3.90061V3.90493V3.90923V3.91351V3.91777V3.922V3.92621V3.9304V3.93457V3.93871V3.94283V3.94693V3.95101V3.95506V3.95908V3.96309V3.96707V3.97102V3.97495V3.97886V3.98274V3.9866V3.99043V3.99424V3.99802V4.00178V4.00551V4.00922V4.0129V4.01655V4.02018V4.02378V4.02736V4.03091V4.03443V4.03792V4.04139V4.04483V4.04825V4.05163V4.05499V4.05832V4.06163V4.0649V4.06815V4.07136V4.07455V4.07771V4.08085V4.08395V4.08702V4.09007V4.09308V4.09607V4.09902V4.10195V4.10484V4.10771V4.11054V4.11334V4.11612V4.11886V4.12157V4.12425V4.1269V4.12951V4.1321V4.13465V4.13717V4.13966V4.14212V4.14454V4.14693V4.14929V4.15162V4.15391V4.15617V4.15839V4.16058V4.16274V4.16487V4.16696V4.16901V4.17104V4.17302V4.17498V4.17689V4.17878V4.18062V4.18244V4.18421V4.18596V4.18766V4.18933V4.19096V4.19256V4.19412V4.19565V4.19713V4.19859V4.2C15.3287 4.19931 15.3287 4.19935 15.3286 4.20012C15.3279 4.20387 15.3238 4.22484 15.3011 4.26242C15.2756 4.30454 15.2351 4.35323 15.1814 4.39991C15.0703 4.49648 14.9358 4.55692 14.8212 4.56002C14.7029 4.56322 14.5621 4.50672 14.4444 4.4101C14.3875 4.36339 14.344 4.31356 14.3163 4.26941C14.3026 4.2476 14.2941 4.22938 14.2893 4.21563C14.2846 4.20227 14.2843 4.19588 14.2843 4.19589V4.19592C14.2823 4.07038 14.2823 3.54854 14.2828 3.05399C14.2831 2.80763 14.2834 2.56926 14.2838 2.39249L14.2842 2.18023L14.2843 2.12131L14.2843 2.10585L14.2843 2.1019L14.2843 2.1009L14.2843 2.10065V2.10059L14.0273 2.1Z" fill="#BD9B60" stroke="#BD9B60" stroke-width="0.514175" stroke-linejoin="round"/>
<path d="M3.68066 3.89697H11.9075" stroke="#BD9B60" stroke-width="1.62371" stroke-linecap="round" stroke-linejoin="round"/>
<path d="M3.68066 7.46875C3.75627 7.46875 7.68124 7.46875 9.63427 7.46875" stroke="#BD9B60" stroke-width="1.62371" stroke-linecap="round" stroke-linejoin="round"/>
<path d="M3.68066 11.0415H6.17035" stroke="#BD9B60" stroke-width="1.62371" stroke-linecap="round" stroke-linejoin="round"/>
<path d="M3.68066 17.3736H5.40776C5.44453 17.3736 5.47879 17.355 5.49872 17.3241L6.44784 15.8529C6.49296 15.783 6.59682 15.788 6.63499 15.862L7.38495 17.315C7.40353 17.351 7.44064 17.3736 7.48115 17.3736H9.41778" stroke="#BD9B60" stroke-width="1.62371" stroke-linecap="round" stroke-linejoin="round"/>
<path d="M9.73564 12.3567L9.2291 14.9301C9.21503 15.0016 9.2742 15.0663 9.34667 15.0587L12.1378 14.7641C12.1635 14.7614 12.1873 14.7496 12.2051 14.7309L18.8348 7.72383C19.1054 7.39909 18.9972 6.20837 18.51 5.72125C18.0812 5.29243 16.724 5.39651 16.4533 5.61301L9.76531 12.301C9.75012 12.3162 9.73979 12.3356 9.73564 12.3567Z" stroke="#BD9B60" stroke-width="1.62371" stroke-linecap="round" stroke-linejoin="round"/>
</svg>
