<svg width="16" height="16" viewBox="0 0 16 16" fill="none" xmlns="http://www.w3.org/2000/svg">
<path d="M9.81301 5.86016L6.95301 8.72683L5.85301 7.62683C5.79325 7.55704 5.7197 7.50036 5.63699 7.46035C5.55428 7.42033 5.46419 7.39784 5.37238 7.3943C5.28057 7.39075 5.18901 7.40622 5.10346 7.43974C5.01791 7.47325 4.94021 7.52409 4.87524 7.58906C4.81027 7.65403 4.75944 7.73173 4.72592 7.81728C4.6924 7.90283 4.67693 7.99439 4.68048 8.0862C4.68402 8.17801 4.70651 8.2681 4.74653 8.35081C4.78654 8.43352 4.84322 8.50707 4.91301 8.56683L6.47968 10.1402C6.54197 10.202 6.61585 10.2508 6.69707 10.284C6.7783 10.3172 6.86527 10.334 6.95301 10.3335C7.1279 10.3328 7.2955 10.2633 7.41968 10.1402L10.753 6.80683C10.8155 6.74485 10.8651 6.67112 10.8989 6.58988C10.9328 6.50864 10.9502 6.4215 10.9502 6.3335C10.9502 6.24549 10.9328 6.15835 10.8989 6.07711C10.8651 5.99587 10.8155 5.92214 10.753 5.86016C10.6281 5.736 10.4591 5.6663 10.283 5.6663C10.1069 5.6663 9.93792 5.736 9.81301 5.86016ZM7.99968 1.3335C6.68114 1.3335 5.3922 1.72449 4.29588 2.45703C3.19955 3.18957 2.34506 4.23077 1.84048 5.44894C1.3359 6.66711 1.20387 8.00756 1.46111 9.30076C1.71834 10.594 2.35328 11.7819 3.28563 12.7142C4.21798 13.6466 5.40587 14.2815 6.69908 14.5387C7.99228 14.796 9.33273 14.6639 10.5509 14.1594C11.7691 13.6548 12.8103 12.8003 13.5428 11.704C14.2754 10.6076 14.6663 9.31871 14.6663 8.00016C14.6663 7.12468 14.4939 6.25778 14.1589 5.44894C13.8238 4.6401 13.3328 3.90517 12.7137 3.28612C12.0947 2.66706 11.3597 2.176 10.5509 1.84097C9.74206 1.50593 8.87516 1.3335 7.99968 1.3335ZM7.99968 13.3335C6.94484 13.3335 5.9137 13.0207 5.03664 12.4347C4.15957 11.8486 3.47599 11.0157 3.07232 10.0411C2.66865 9.0666 2.56304 7.99425 2.76882 6.95968C2.97461 5.92512 3.48256 4.97481 4.22844 4.22893C4.97432 3.48305 5.92463 2.9751 6.9592 2.76931C7.99376 2.56352 9.06612 2.66914 10.0407 3.07281C11.0152 3.47647 11.8481 4.16006 12.4342 5.03712C13.0202 5.91418 13.333 6.94533 13.333 8.00016C13.333 9.41465 12.7711 10.7712 11.7709 11.7714C10.7707 12.7716 9.41417 13.3335 7.99968 13.3335Z" fill="#215732"/>
</svg>
