<svg width="94" height="22" viewBox="0 0 94 22" fill="none" xmlns="http://www.w3.org/2000/svg">
<path d="M13.3378 2.61273V4.17106H4.14818V17.8294H17.8065V8.66273H19.3648V17.8294C19.3648 18.2419 19.2082 18.6047 18.8951 18.9179C18.5819 19.2311 18.219 19.3877 17.8065 19.3877H4.14818C3.7204 19.3877 3.35373 19.2311 3.04818 18.9179C2.74262 18.6047 2.58984 18.2419 2.58984 17.8294V4.17106C2.58984 3.74328 2.74262 3.37662 3.04818 3.07106C3.35373 2.76551 3.7204 2.61273 4.14818 2.61273H13.3378ZM17.5086 2.56689V4.46898H19.4336V5.91273H17.5315V7.83773H16.0878V5.91273H14.1628V4.49189H16.0878V2.56689H17.5086ZM5.47734 15.5377H16.4773L13.1773 11.1377L10.2669 14.9648L8.11276 12.1231L5.47734 15.5377ZM4.14818 4.17106V17.8294V4.17106Z" fill="#9C9FA1"/>
<path d="M32.108 16C32.036 16 31.988 15.968 31.964 15.904L31.484 14.392C31.476 14.368 31.46 14.356 31.436 14.356H27.848C27.824 14.356 27.808 14.368 27.8 14.392L27.32 15.904C27.296 15.968 27.248 16 27.176 16H26.528C26.44 16 26.408 15.956 26.432 15.868L29.084 7.696C29.108 7.632 29.156 7.6 29.228 7.6H30.044C30.116 7.6 30.164 7.632 30.188 7.696L32.852 15.868L32.864 15.916C32.864 15.972 32.828 16 32.756 16H32.108ZM28.04 13.6C28.032 13.616 28.032 13.632 28.04 13.648C28.056 13.656 28.072 13.66 28.088 13.66H31.184C31.2 13.66 31.212 13.656 31.22 13.648C31.236 13.632 31.24 13.616 31.232 13.6L29.672 8.704C29.664 8.688 29.652 8.68 29.636 8.68C29.62 8.68 29.608 8.688 29.6 8.704L28.04 13.6ZM36.8324 10.516C36.8324 10.596 36.7924 10.636 36.7124 10.636H35.3564C35.3244 10.636 35.3084 10.652 35.3084 10.684V14.224C35.3084 14.608 35.3924 14.88 35.5604 15.04C35.7364 15.192 36.0084 15.268 36.3764 15.268H36.6764C36.7564 15.268 36.7964 15.308 36.7964 15.388V15.88C36.7964 15.96 36.7564 16 36.6764 16C36.5804 16.008 36.4324 16.012 36.2324 16.012C35.6564 16.012 35.2204 15.904 34.9244 15.688C34.6284 15.472 34.4804 15.072 34.4804 14.488V10.684C34.4804 10.652 34.4644 10.636 34.4324 10.636H33.7004C33.6204 10.636 33.5804 10.596 33.5804 10.516V10.048C33.5804 9.968 33.6204 9.928 33.7004 9.928H34.4324C34.4644 9.928 34.4804 9.912 34.4804 9.88V8.488C34.4804 8.408 34.5204 8.368 34.6004 8.368H35.1884C35.2684 8.368 35.3084 8.408 35.3084 8.488V9.88C35.3084 9.912 35.3244 9.928 35.3564 9.928H36.7124C36.7924 9.928 36.8324 9.968 36.8324 10.048V10.516ZM41.2035 10.516C41.2035 10.596 41.1635 10.636 41.0835 10.636H39.7275C39.6955 10.636 39.6795 10.652 39.6795 10.684V14.224C39.6795 14.608 39.7635 14.88 39.9315 15.04C40.1075 15.192 40.3795 15.268 40.7475 15.268H41.0475C41.1275 15.268 41.1675 15.308 41.1675 15.388V15.88C41.1675 15.96 41.1275 16 41.0475 16C40.9515 16.008 40.8035 16.012 40.6035 16.012C40.0275 16.012 39.5915 15.904 39.2955 15.688C38.9995 15.472 38.8515 15.072 38.8515 14.488V10.684C38.8515 10.652 38.8355 10.636 38.8035 10.636H38.0715C37.9915 10.636 37.9515 10.596 37.9515 10.516V10.048C37.9515 9.968 37.9915 9.928 38.0715 9.928H38.8035C38.8355 9.928 38.8515 9.912 38.8515 9.88V8.488C38.8515 8.408 38.8915 8.368 38.9715 8.368H39.5595C39.6395 8.368 39.6795 8.408 39.6795 8.488V9.88C39.6795 9.912 39.6955 9.928 39.7275 9.928H41.0835C41.1635 9.928 41.2035 9.968 41.2035 10.048V10.516ZM44.9506 9.832C45.6706 9.832 46.2266 10.016 46.6186 10.384C47.0106 10.752 47.2066 11.24 47.2066 11.848V15.88C47.2066 15.96 47.1666 16 47.0866 16H46.4746C46.3946 16 46.3546 15.96 46.3546 15.88V15.388C46.3546 15.372 46.3466 15.36 46.3306 15.352C46.3226 15.344 46.3106 15.348 46.2946 15.364C46.0946 15.604 45.8346 15.788 45.5146 15.916C45.1946 16.036 44.8386 16.096 44.4466 16.096C43.8786 16.096 43.4026 15.952 43.0186 15.664C42.6346 15.376 42.4426 14.936 42.4426 14.344C42.4426 13.744 42.6586 13.272 43.0906 12.928C43.5306 12.576 44.1386 12.4 44.9146 12.4H46.3066C46.3386 12.4 46.3546 12.384 46.3546 12.352V11.896C46.3546 11.488 46.2386 11.168 46.0066 10.936C45.7826 10.696 45.4306 10.576 44.9506 10.576C44.5666 10.576 44.2546 10.652 44.0146 10.804C43.7746 10.948 43.6266 11.152 43.5706 11.416C43.5466 11.496 43.4986 11.532 43.4266 11.524L42.7786 11.44C42.6906 11.424 42.6546 11.392 42.6706 11.344C42.7346 10.896 42.9746 10.532 43.3906 10.252C43.8066 9.972 44.3266 9.832 44.9506 9.832ZM44.6146 15.364C45.0866 15.364 45.4946 15.248 45.8386 15.016C46.1826 14.776 46.3546 14.456 46.3546 14.056V13.12C46.3546 13.088 46.3386 13.072 46.3066 13.072H45.0466C44.5186 13.072 44.0946 13.18 43.7746 13.396C43.4546 13.612 43.2946 13.912 43.2946 14.296C43.2946 14.648 43.4146 14.916 43.6546 15.1C43.9026 15.276 44.2226 15.364 44.6146 15.364ZM51.2715 16.096C50.6955 16.096 50.1995 15.948 49.7835 15.652C49.3755 15.348 49.0955 14.94 48.9435 14.428C48.8395 14.076 48.7875 13.58 48.7875 12.94C48.7875 12.364 48.8395 11.876 48.9435 11.476C49.0875 10.98 49.3675 10.584 49.7835 10.288C50.1995 9.984 50.6955 9.832 51.2715 9.832C51.8555 9.832 52.3595 9.98 52.7835 10.276C53.2155 10.572 53.4955 10.94 53.6235 11.38C53.6635 11.524 53.6875 11.644 53.6955 11.74V11.764C53.6955 11.82 53.6595 11.856 53.5875 11.872L52.9875 11.956H52.9635C52.9075 11.956 52.8715 11.92 52.8555 11.848L52.8195 11.668C52.7475 11.364 52.5715 11.108 52.2915 10.9C52.0115 10.684 51.6715 10.576 51.2715 10.576C50.8715 10.576 50.5355 10.684 50.2635 10.9C49.9995 11.108 49.8275 11.388 49.7475 11.74C49.6755 12.044 49.6395 12.448 49.6395 12.952C49.6395 13.48 49.6755 13.888 49.7475 14.176C49.8275 14.536 49.9995 14.824 50.2635 15.04C50.5355 15.248 50.8715 15.352 51.2715 15.352C51.6635 15.352 51.9995 15.252 52.2795 15.052C52.5675 14.844 52.7475 14.58 52.8195 14.26V14.212L52.8315 14.164C52.8395 14.084 52.8875 14.052 52.9755 14.068L53.5635 14.164C53.6435 14.18 53.6795 14.224 53.6715 14.296L53.6235 14.536C53.5035 15 53.2275 15.376 52.7955 15.664C52.3635 15.952 51.8555 16.096 51.2715 16.096ZM57.7339 9.844C58.3739 9.844 58.8819 10.032 59.2579 10.408C59.6419 10.784 59.8339 11.288 59.8339 11.92V15.88C59.8339 15.96 59.7939 16 59.7139 16H59.1019C59.0219 16 58.9819 15.96 58.9819 15.88V12.088C58.9819 11.648 58.8459 11.288 58.5739 11.008C58.3099 10.728 57.9659 10.588 57.5419 10.588C57.1019 10.588 56.7459 10.724 56.4739 10.996C56.2019 11.268 56.0659 11.624 56.0659 12.064V15.88C56.0659 15.96 56.0259 16 55.9459 16H55.3339C55.2539 16 55.2139 15.96 55.2139 15.88V7.72C55.2139 7.64 55.2539 7.6 55.3339 7.6H55.9459C56.0259 7.6 56.0659 7.64 56.0659 7.72V10.564C56.0659 10.58 56.0699 10.592 56.0779 10.6C56.0939 10.608 56.1059 10.604 56.1139 10.588C56.4659 10.092 57.0059 9.844 57.7339 9.844ZM68.801 11.44C68.921 11.824 68.981 12.332 68.981 12.964C68.981 13.604 68.929 14.1 68.825 14.452C68.681 14.964 68.417 15.368 68.033 15.664C67.657 15.952 67.181 16.096 66.605 16.096C66.293 16.096 66.005 16.036 65.741 15.916C65.477 15.788 65.257 15.608 65.081 15.376C65.065 15.36 65.049 15.356 65.033 15.364C65.025 15.364 65.021 15.372 65.021 15.388V18.208C65.021 18.288 64.981 18.328 64.901 18.328H64.289C64.209 18.328 64.169 18.288 64.169 18.208V10.048C64.169 9.968 64.209 9.928 64.289 9.928H64.901C64.981 9.928 65.021 9.968 65.021 10.048V10.552C65.021 10.568 65.025 10.58 65.033 10.588C65.049 10.588 65.065 10.58 65.081 10.564C65.257 10.332 65.473 10.152 65.729 10.024C65.993 9.896 66.285 9.832 66.605 9.832C67.165 9.832 67.633 9.976 68.009 10.264C68.393 10.552 68.657 10.944 68.801 11.44ZM67.853 14.476C67.941 14.3 68.005 14.104 68.045 13.888C68.093 13.664 68.117 13.356 68.117 12.964C68.117 12.588 68.101 12.296 68.069 12.088C68.037 11.872 67.981 11.68 67.901 11.512C67.805 11.224 67.633 10.996 67.385 10.828C67.145 10.66 66.857 10.576 66.521 10.576C66.201 10.576 65.933 10.66 65.717 10.828C65.501 10.996 65.341 11.22 65.237 11.5C65.165 11.66 65.113 11.848 65.081 12.064C65.049 12.28 65.033 12.58 65.033 12.964C65.033 13.348 65.049 13.652 65.081 13.876C65.113 14.092 65.169 14.284 65.249 14.452C65.345 14.724 65.501 14.944 65.717 15.112C65.941 15.272 66.205 15.352 66.509 15.352C66.829 15.352 67.105 15.272 67.337 15.112C67.577 14.952 67.749 14.74 67.853 14.476ZM73.2144 9.844C73.8544 9.844 74.3624 10.032 74.7384 10.408C75.1224 10.784 75.3144 11.288 75.3144 11.92V15.88C75.3144 15.96 75.2744 16 75.1944 16H74.5824C74.5024 16 74.4624 15.96 74.4624 15.88V12.088C74.4624 11.648 74.3264 11.288 74.0544 11.008C73.7904 10.728 73.4464 10.588 73.0224 10.588C72.5824 10.588 72.2264 10.724 71.9544 10.996C71.6824 11.268 71.5464 11.624 71.5464 12.064V15.88C71.5464 15.96 71.5064 16 71.4264 16H70.8144C70.7344 16 70.6944 15.96 70.6944 15.88V7.72C70.6944 7.64 70.7344 7.6 70.8144 7.6H71.4264C71.5064 7.6 71.5464 7.64 71.5464 7.72V10.564C71.5464 10.58 71.5504 10.592 71.5584 10.6C71.5744 10.608 71.5864 10.604 71.5944 10.588C71.9464 10.092 72.4864 9.844 73.2144 9.844ZM79.3971 16.096C78.8211 16.096 78.3251 15.948 77.9091 15.652C77.4931 15.356 77.2051 14.948 77.0451 14.428C76.9331 14.06 76.8771 13.568 76.8771 12.952C76.8771 12.336 76.9331 11.848 77.0451 11.488C77.1971 10.976 77.4811 10.572 77.8971 10.276C78.3131 9.98 78.8171 9.832 79.4091 9.832C79.9771 9.832 80.4651 9.98 80.8731 10.276C81.2891 10.572 81.5731 10.972 81.7251 11.476C81.8371 11.82 81.8931 12.312 81.8931 12.952C81.8931 13.6 81.8371 14.092 81.7251 14.428C81.5731 14.948 81.2891 15.356 80.8731 15.652C80.4651 15.948 79.9731 16.096 79.3971 16.096ZM79.3971 15.352C79.7811 15.352 80.1091 15.248 80.3811 15.04C80.6531 14.824 80.8371 14.536 80.9331 14.176C81.0051 13.888 81.0411 13.484 81.0411 12.964C81.0411 12.436 81.0091 12.032 80.9451 11.752C80.8491 11.392 80.6611 11.108 80.3811 10.9C80.1091 10.684 79.7771 10.576 79.3851 10.576C78.9931 10.576 78.6611 10.684 78.3891 10.9C78.1171 11.108 77.9331 11.392 77.8371 11.752C77.7731 12.032 77.7411 12.436 77.7411 12.964C77.7411 13.492 77.7731 13.896 77.8371 14.176C77.9251 14.536 78.1051 14.824 78.3771 15.04C78.6571 15.248 78.9971 15.352 79.3971 15.352ZM86.2738 10.516C86.2738 10.596 86.2338 10.636 86.1538 10.636H84.7978C84.7658 10.636 84.7498 10.652 84.7498 10.684V14.224C84.7498 14.608 84.8338 14.88 85.0018 15.04C85.1778 15.192 85.4498 15.268 85.8178 15.268H86.1178C86.1978 15.268 86.2378 15.308 86.2378 15.388V15.88C86.2378 15.96 86.1978 16 86.1178 16C86.0218 16.008 85.8738 16.012 85.6738 16.012C85.0978 16.012 84.6618 15.904 84.3658 15.688C84.0698 15.472 83.9218 15.072 83.9218 14.488V10.684C83.9218 10.652 83.9058 10.636 83.8738 10.636H83.1418C83.0618 10.636 83.0218 10.596 83.0218 10.516V10.048C83.0218 9.968 83.0618 9.928 83.1418 9.928H83.8738C83.9058 9.928 83.9218 9.912 83.9218 9.88V8.488C83.9218 8.408 83.9618 8.368 84.0418 8.368H84.6298C84.7098 8.368 84.7498 8.408 84.7498 8.488V9.88C84.7498 9.912 84.7658 9.928 84.7978 9.928H86.1538C86.2338 9.928 86.2738 9.968 86.2738 10.048V10.516ZM90.0612 16.096C89.4852 16.096 88.9892 15.948 88.5732 15.652C88.1572 15.356 87.8692 14.948 87.7092 14.428C87.5972 14.06 87.5412 13.568 87.5412 12.952C87.5412 12.336 87.5972 11.848 87.7092 11.488C87.8612 10.976 88.1452 10.572 88.5612 10.276C88.9772 9.98 89.4812 9.832 90.0732 9.832C90.6412 9.832 91.1292 9.98 91.5372 10.276C91.9532 10.572 92.2372 10.972 92.3892 11.476C92.5012 11.82 92.5572 12.312 92.5572 12.952C92.5572 13.6 92.5012 14.092 92.3892 14.428C92.2372 14.948 91.9532 15.356 91.5372 15.652C91.1292 15.948 90.6372 16.096 90.0612 16.096ZM90.0612 15.352C90.4452 15.352 90.7732 15.248 91.0452 15.04C91.3172 14.824 91.5012 14.536 91.5972 14.176C91.6692 13.888 91.7052 13.484 91.7052 12.964C91.7052 12.436 91.6732 12.032 91.6092 11.752C91.5132 11.392 91.3252 11.108 91.0452 10.9C90.7732 10.684 90.4412 10.576 90.0492 10.576C89.6572 10.576 89.3252 10.684 89.0532 10.9C88.7812 11.108 88.5972 11.392 88.5012 11.752C88.4372 12.032 88.4052 12.436 88.4052 12.964C88.4052 13.492 88.4372 13.896 88.5012 14.176C88.5892 14.536 88.7692 14.824 89.0412 15.04C89.3212 15.248 89.6612 15.352 90.0612 15.352Z" fill="#9C9FA1"/>
</svg>
