<svg width="26" height="31" viewBox="0 0 26 31" fill="none" xmlns="http://www.w3.org/2000/svg">
<path fill-rule="evenodd" clip-rule="evenodd" d="M13.0002 0.833374C8.00331 0.833374 3.95254 4.93744 3.95254 10V15.4033C3.95254 15.4938 3.92611 15.5822 3.87656 15.6575L0.794707 20.3411C0.493965 20.7982 0.333496 21.3352 0.333496 21.8844C0.333496 23.4211 1.56298 24.6667 3.07961 24.6667H22.9207C24.4374 24.6667 25.6668 23.4211 25.6668 21.8844C25.6668 21.3352 25.5063 20.7982 25.2056 20.3411L22.1238 15.6575C22.0742 15.5822 22.0478 15.4938 22.0478 15.4033V10C22.0478 4.93744 17.997 0.833374 13.0002 0.833374ZM6.66683 10C6.66683 6.45621 9.50235 3.58337 13.0002 3.58337C16.498 3.58337 19.3335 6.45621 19.3335 10V15.4033C19.3335 16.0367 19.5186 16.6559 19.8653 17.1829L22.9471 21.8665C22.9507 21.8718 22.9525 21.878 22.9525 21.8844C22.9525 21.8886 22.9517 21.8934 22.9517 21.8934L22.9506 21.8965C22.9506 21.8965 22.9471 21.9033 22.9431 21.9072C22.9393 21.9112 22.9326 21.9147 22.9326 21.9147C22.9326 21.9147 22.9276 21.9167 22.9207 21.9167H3.07961C3.07272 21.9167 3.06763 21.9147 3.06763 21.9147C3.06763 21.9147 3.06097 21.9112 3.0571 21.9072C3.05325 21.9033 3.04972 21.8965 3.04972 21.8965C3.04972 21.8965 3.04778 21.8914 3.04778 21.8844C3.04778 21.878 3.04965 21.8718 3.05312 21.8665L6.13499 17.1829C6.48177 16.6559 6.66683 16.0367 6.66683 15.4033V10Z" fill="#BD9B60"/>
<path d="M16.5913 26.9575C16.3691 28.7666 14.846 30.1667 13.0001 30.1667C11.1543 30.1667 9.63121 28.7666 9.40899 26.9575C9.37813 26.7063 9.58364 26.5 9.83348 26.5H16.1668C16.4167 26.5 16.6221 26.7063 16.5913 26.9575Z" fill="#BD9B60"/>
</svg>
