<svg width="28" height="28" viewBox="0 0 28 28" fill="none" xmlns="http://www.w3.org/2000/svg">
<path d="M22.6804 15.1669C22.4237 15.1669 22.1554 15.0853 21.8987 15.0269C21.3789 14.9124 20.8681 14.7603 20.3704 14.5719C19.8291 14.375 19.2342 14.3852 18.7001 14.6006C18.1659 14.816 17.7303 15.2213 17.477 15.7386L17.2204 16.2636C16.084 15.6315 15.0398 14.8464 14.117 13.9303C13.2009 13.0074 12.4158 11.9633 11.7837 10.8269L12.2737 10.5003C12.791 10.247 13.1963 9.81137 13.4117 9.27723C13.627 8.74308 13.6373 8.14815 13.4404 7.60692C13.2551 7.10808 13.1031 6.59752 12.9854 6.07859C12.927 5.82192 12.8804 5.55359 12.8454 5.28525C12.7037 4.46348 12.2733 3.71929 11.6316 3.1867C10.9899 2.65411 10.1792 2.36813 9.34536 2.38025H5.84536C5.34257 2.37553 4.84465 2.4792 4.38552 2.68421C3.92639 2.88921 3.51682 3.19073 3.1847 3.56825C2.85257 3.94577 2.60569 4.39041 2.46085 4.87192C2.31601 5.35343 2.27662 5.86049 2.34536 6.35859C2.96689 11.2462 5.19906 15.7874 8.68929 19.265C12.1795 22.7425 16.7289 24.9582 21.6187 25.5619H22.062C22.9223 25.5632 23.753 25.2475 24.3954 24.6753C24.7645 24.3451 25.0593 23.9405 25.2604 23.488C25.4615 23.0355 25.5643 22.5454 25.562 22.0503V18.5503C25.5477 17.7399 25.2526 16.9596 24.7271 16.3425C24.2015 15.7255 23.4781 15.31 22.6804 15.1669ZM23.2637 22.1669C23.2635 22.3326 23.228 22.4963 23.1596 22.6471C23.0912 22.798 22.9915 22.9326 22.867 23.0419C22.7371 23.1551 22.5847 23.2396 22.4198 23.2898C22.255 23.3401 22.0814 23.355 21.9104 23.3336C17.5411 22.7734 13.4826 20.7745 10.3752 17.6523C7.26776 14.53 5.28817 10.4621 4.7487 6.09025C4.73013 5.91936 4.7464 5.74647 4.79653 5.58204C4.84666 5.41761 4.92961 5.26506 5.04036 5.13359C5.14969 5.00914 5.28427 4.9094 5.43514 4.84101C5.58601 4.77261 5.74971 4.73713 5.91536 4.73692H9.41536C9.68667 4.73088 9.95159 4.81961 10.1645 4.98784C10.3775 5.15606 10.5251 5.39325 10.582 5.65859C10.6287 5.97748 10.687 6.29248 10.757 6.60359C10.8918 7.21859 11.0712 7.82296 11.2937 8.41192L9.66036 9.17025C9.52071 9.23433 9.39509 9.32536 9.29071 9.43812C9.18634 9.55087 9.10526 9.68314 9.05215 9.82731C8.99903 9.97149 8.97491 10.1247 8.98118 10.2783C8.98746 10.4318 9.02399 10.5826 9.0887 10.7219C10.7678 14.3185 13.6588 17.2095 17.2554 18.8886C17.5394 19.0053 17.858 19.0053 18.142 18.8886C18.2875 18.8365 18.4212 18.7561 18.5354 18.652C18.6496 18.5478 18.7419 18.422 18.807 18.2819L19.5304 16.6486C20.1335 16.8643 20.749 17.0435 21.3737 17.1853C21.6848 17.2553 21.9998 17.3136 22.3187 17.3603C22.584 17.4172 22.8212 17.5648 22.9894 17.7778C23.1577 17.9907 23.2464 18.2556 23.2404 18.5269L23.2637 22.1669Z" fill="#BD9B60"/>
</svg>
