<svg width="16" height="16" viewBox="0 0 16 16" fill="none" xmlns="http://www.w3.org/2000/svg">
<path d="M12.6673 5.3335H12.0007V3.3335C12.0007 2.80306 11.7899 2.29436 11.4149 1.91928C11.0398 1.54421 10.5311 1.3335 10.0007 1.3335H3.33398C2.80355 1.3335 2.29484 1.54421 1.91977 1.91928C1.5447 2.29436 1.33398 2.80306 1.33398 3.3335V11.3335C1.33464 11.4651 1.37424 11.5936 1.4478 11.7027C1.52135 11.8119 1.62557 11.8968 1.74732 11.9468C1.82644 11.9842 1.9132 12.0024 2.00065 12.0002C2.08839 12.0007 2.17536 11.9839 2.25659 11.9507C2.33781 11.9175 2.41169 11.8686 2.47398 11.8068L4.34732 9.92683H5.33398V10.8868C5.33398 11.4173 5.5447 11.926 5.91977 12.301C6.29484 12.6761 6.80355 12.8868 7.33398 12.8868H11.9473L13.5273 14.4735C13.5896 14.5353 13.6635 14.5842 13.7447 14.6173C13.8259 14.6505 13.9129 14.6673 14.0007 14.6668C14.0881 14.6691 14.1749 14.6508 14.254 14.6135C14.3757 14.5635 14.4799 14.4786 14.5535 14.3694C14.6271 14.2603 14.6667 14.1318 14.6673 14.0002V7.3335C14.6673 6.80306 14.4566 6.29436 14.0815 5.91928C13.7065 5.54421 13.1978 5.3335 12.6673 5.3335ZM5.33398 7.3335V8.5935H4.07398C3.98625 8.59299 3.89927 8.60981 3.81805 8.64298C3.73682 8.67616 3.66294 8.72504 3.60065 8.78683L2.66732 9.72683V3.3335C2.66732 3.15669 2.73756 2.98712 2.86258 2.86209C2.9876 2.73707 3.15717 2.66683 3.33398 2.66683H10.0007C10.1775 2.66683 10.347 2.73707 10.4721 2.86209C10.5971 2.98712 10.6673 3.15669 10.6673 3.3335V5.3335H7.33398C6.80355 5.3335 6.29484 5.54421 5.91977 5.91928C5.5447 6.29436 5.33398 6.80306 5.33398 7.3335ZM13.334 12.3935L12.6673 11.7268C12.6056 11.6638 12.5319 11.6137 12.4507 11.5794C12.3694 11.5451 12.2822 11.5272 12.194 11.5268H7.33398C7.15717 11.5268 6.9876 11.4566 6.86258 11.3316C6.73756 11.2065 6.66732 11.037 6.66732 10.8602V7.3335C6.66732 7.15669 6.73756 6.98712 6.86258 6.86209C6.9876 6.73707 7.15717 6.66683 7.33398 6.66683H12.6673C12.8441 6.66683 13.0137 6.73707 13.1387 6.86209C13.2637 6.98712 13.334 7.15669 13.334 7.3335V12.3935Z" fill="#215732"/>
</svg>
