<svg width="16" height="16" viewBox="0 0 16 16" fill="none" xmlns="http://www.w3.org/2000/svg">
<path d="M10.4739 5.52672C10.4119 5.46423 10.3382 5.41464 10.2569 5.38079C10.1757 5.34695 10.0885 5.32952 10.0005 5.32952C9.91253 5.32952 9.8254 5.34695 9.74416 5.38079C9.66292 5.41464 9.58918 5.46423 9.52721 5.52672L8.00054 7.06005L6.47387 5.52672C6.34834 5.40118 6.17808 5.33066 6.00054 5.33066C5.82301 5.33066 5.65274 5.40118 5.52721 5.52672C5.40167 5.65226 5.33115 5.82252 5.33115 6.00005C5.33115 6.17759 5.40167 6.34785 5.52721 6.47339L7.06054 8.00005L5.52721 9.52672C5.46472 9.58869 5.41513 9.66243 5.38128 9.74367C5.34743 9.82491 5.33001 9.91205 5.33001 10.0001C5.33001 10.0881 5.34743 10.1752 5.38128 10.2564C5.41513 10.3377 5.46472 10.4114 5.52721 10.4734C5.58918 10.5359 5.66292 10.5855 5.74416 10.6193C5.8254 10.6532 5.91253 10.6706 6.00054 10.6706C6.08855 10.6706 6.17569 10.6532 6.25693 10.6193C6.33817 10.5855 6.4119 10.5359 6.47387 10.4734L8.00054 8.94005L9.52721 10.4734C9.58918 10.5359 9.66292 10.5855 9.74416 10.6193C9.8254 10.6532 9.91253 10.6706 10.0005 10.6706C10.0885 10.6706 10.1757 10.6532 10.2569 10.6193C10.3382 10.5855 10.4119 10.5359 10.4739 10.4734C10.5364 10.4114 10.586 10.3377 10.6198 10.2564C10.6536 10.1752 10.6711 10.0881 10.6711 10.0001C10.6711 9.91205 10.6536 9.82491 10.6198 9.74367C10.586 9.66243 10.5364 9.58869 10.4739 9.52672L8.94054 8.00005L10.4739 6.47339C10.5364 6.41141 10.586 6.33768 10.6198 6.25644C10.6536 6.1752 10.6711 6.08806 10.6711 6.00005C10.6711 5.91204 10.6536 5.82491 10.6198 5.74367C10.586 5.66243 10.5364 5.58869 10.4739 5.52672V5.52672ZM12.7139 3.28672C12.0989 2.64998 11.3633 2.1421 10.5499 1.79271C9.73654 1.44332 8.86174 1.25941 7.97655 1.25172C7.09135 1.24402 6.21349 1.4127 5.39418 1.74791C4.57487 2.08311 3.83053 2.57814 3.20457 3.20409C2.57862 3.83004 2.0836 4.57438 1.7484 5.39369C1.41319 6.213 1.24451 7.09087 1.2522 7.97606C1.2599 8.86126 1.44381 9.73606 1.7932 10.5494C2.14259 11.3628 2.65047 12.0984 3.28721 12.7134C3.90219 13.3501 4.63782 13.858 5.45118 14.2074C6.26454 14.5568 7.13934 14.7407 8.02453 14.7484C8.90973 14.7561 9.78759 14.5874 10.6069 14.2522C11.4262 13.917 12.1706 13.422 12.7965 12.796C13.4225 12.1701 13.9175 11.4257 14.2527 10.6064C14.5879 9.7871 14.7566 8.90924 14.7489 8.02404C14.7412 7.13885 14.5573 6.26405 14.2079 5.45069C13.8585 4.63733 13.3506 3.9017 12.7139 3.28672V3.28672ZM11.7739 11.7734C10.9019 12.6463 9.75423 13.1899 8.5264 13.3116C7.29857 13.4332 6.06655 13.1254 5.04022 12.4406C4.0139 11.7557 3.25678 10.7362 2.89786 9.55571C2.53893 8.37523 2.60041 7.10681 3.07182 5.96658C3.54322 4.82634 4.39539 3.88482 5.48314 3.30243C6.57088 2.72004 7.8269 2.53281 9.03721 2.77264C10.2475 3.01246 11.3372 3.66451 12.1207 4.61769C12.9042 5.57087 13.3329 6.76621 13.3339 8.00005C13.3363 8.70091 13.1996 9.39528 12.9318 10.043C12.6641 10.6907 12.2705 11.2788 11.7739 11.7734V11.7734Z" fill="#D80000"/>
</svg>
