<svg width="16" height="16" viewBox="0 0 16 16" fill="none" xmlns="http://www.w3.org/2000/svg">
<path d="M9.87634 14.6668H4.03161C3.66993 14.6659 3.32333 14.5126 3.06773 14.2403C2.81213 13.968 2.66838 13.599 2.66797 13.2141V5.01356C2.66838 4.6284 2.81235 4.25915 3.06828 3.9868C3.32422 3.71445 3.67122 3.56126 4.03317 3.56082H7.86634C7.99054 3.56084 8.10964 3.61333 8.19749 3.70675L11.1028 6.8014C11.1464 6.8477 11.181 6.90268 11.2045 6.9632C11.2281 7.02372 11.2403 7.08859 11.2403 7.15411V13.2141C11.2399 13.599 11.0961 13.9681 10.8404 14.2404C10.5848 14.5127 10.2381 14.666 9.87634 14.6668ZM4.03161 4.55812C3.91839 4.55865 3.80998 4.60686 3.73007 4.6922C3.65016 4.77754 3.60526 4.89308 3.60518 5.01356V13.2141C3.60534 13.3345 3.65027 13.45 3.73016 13.5353C3.81005 13.6207 3.91842 13.6689 4.03161 13.6695H9.87634C9.9898 13.6693 10.0986 13.6213 10.1788 13.5359C10.259 13.4506 10.3042 13.3348 10.3043 13.2141V7.36056L7.67078 4.55812H4.03161Z" fill="#999999"/>
<path d="M11.9694 12.4395H10.7729C10.6487 12.4395 10.5295 12.387 10.4416 12.2935C10.3537 12.1999 10.3043 12.0731 10.3043 11.9409C10.3043 11.8086 10.3537 11.6818 10.4416 11.5883C10.5295 11.4947 10.6487 11.4422 10.7729 11.4422H11.9694C12.0829 11.442 12.1917 11.394 12.2719 11.3086C12.3521 11.2232 12.3973 11.1075 12.3974 10.9868V2.78624C12.3973 2.66551 12.3521 2.54977 12.2719 2.46439C12.1917 2.37902 12.0829 2.33098 11.9694 2.3308H6.1247C6.01151 2.33142 5.90315 2.37965 5.82326 2.46498C5.74337 2.5503 5.69844 2.66579 5.69827 2.78624V4.05947C5.69827 4.19172 5.6489 4.31855 5.56102 4.41207C5.47314 4.50559 5.35395 4.55812 5.22967 4.55812C5.10539 4.55812 4.9862 4.50559 4.89832 4.41207C4.81044 4.31855 4.76106 4.19172 4.76106 4.05947V2.78624C4.7614 2.40106 4.90533 2.03175 5.16129 1.75938C5.41724 1.48702 5.76429 1.33385 6.12626 1.3335H11.9694C12.3314 1.33385 12.6785 1.48702 12.9344 1.75938C13.1904 2.03175 13.3343 2.40106 13.3346 2.78624V10.9868C13.3343 11.3719 13.1904 11.7413 12.9344 12.0136C12.6785 12.286 12.3314 12.4392 11.9694 12.4395Z" fill="#999999"/>
<path d="M10.7729 7.65243H8.76138C8.39943 7.65199 8.05243 7.4988 7.79649 7.22645C7.54056 6.9541 7.39659 6.58485 7.39618 6.19969V4.05947C7.39618 3.92722 7.44555 3.80038 7.53343 3.70687C7.62131 3.61335 7.7405 3.56082 7.86478 3.56082C7.98906 3.56082 8.10825 3.61335 8.19614 3.70687C8.28402 3.80038 8.33339 3.92722 8.33339 4.05947V6.20002C8.33347 6.32079 8.37859 6.43658 8.45883 6.52197C8.53908 6.60736 8.64789 6.65537 8.76138 6.65546H10.7729C10.8972 6.65546 11.0164 6.708 11.1043 6.80151C11.1922 6.89503 11.2415 7.02186 11.2415 7.15411C11.2415 7.28636 11.1922 7.4132 11.1043 7.50672C11.0164 7.60023 10.8972 7.65277 10.7729 7.65277V7.65243Z" fill="#999999"/>
</svg>
