<svg width="20" height="16" viewBox="0 0 20 16" fill="none" xmlns="http://www.w3.org/2000/svg">
<path d="M0 2C0 0.895431 0.895431 0 2 0C3.10457 0 4 0.895431 4 2C4 3.10457 3.10457 4 2 4C0.895431 4 0 3.10457 0 2Z" fill="#BD9B60"/>
<path d="M0 8C0 6.89543 0.895431 6 2 6C3.10457 6 4 6.89543 4 8C4 9.10457 3.10457 10 2 10C0.895431 10 0 9.10457 0 8Z" fill="#BD9B60"/>
<path d="M0 14C0 12.8954 0.895431 12 2 12C3.10457 12 4 12.8954 4 14C4 15.1046 3.10457 16 2 16C0.895431 16 0 15.1046 0 14Z" fill="#BD9B60"/>
<path d="M6 2.07692C6 1.48215 6.48215 1 7.07692 1H18.9231C19.5178 1 20 1.48215 20 2.07692C20 2.67169 19.5178 3.15385 18.9231 3.15385H7.07692C6.48215 3.15385 6 2.67169 6 2.07692Z" fill="#BD9B60"/>
<path d="M6 8.07692C6 7.48215 6.48215 7 7.07692 7H18.9231C19.5178 7 20 7.48215 20 8.07692C20 8.67169 19.5178 9.15385 18.9231 9.15385H7.07692C6.48215 9.15385 6 8.67169 6 8.07692Z" fill="#BD9B60"/>
<path d="M6 14.0769C6 13.4822 6.48215 13 7.07692 13H18.9231C19.5178 13 20 13.4822 20 14.0769C20 14.6717 19.5178 15.1538 18.9231 15.1538H7.07692C6.48215 15.1538 6 14.6717 6 14.0769Z" fill="#BD9B60"/>
</svg>
