<svg width="24" height="23" viewBox="0 0 24 23" fill="none" xmlns="http://www.w3.org/2000/svg">
<path d="M14.7619 18.75L19.0003 18.75C19.2655 18.75 19.5197 18.6512 19.7072 18.4755C19.8947 18.2997 20 18.0614 20 17.8128V13.8393C20.0007 13.7159 19.9755 13.5937 19.9258 13.4795C19.876 13.3653 19.8027 13.2615 19.7101 13.1739L12.7826 6.68874L10.0036 4.02721C9.91069 3.93937 9.80013 3.86965 9.67831 3.82207C9.5565 3.7745 9.42584 3.75 9.29387 3.75C9.16191 3.75 9.03125 3.7745 8.90944 3.82207C8.78762 3.86965 8.67706 3.93937 8.58413 4.02721L4.29569 8.00077C4.202 8.08789 4.12763 8.19154 4.07688 8.30574C4.02613 8.41994 4 8.54243 4 8.66615C4 8.78987 4.02613 8.91236 4.07688 9.02656C4.12763 9.14076 4.202 9.24441 4.29569 9.33153L7.12466 11.9743L14.0521 18.4782C14.1456 18.5651 14.2563 18.6338 14.3781 18.6804C14.4999 18.7271 14.6303 18.7507 14.7619 18.75ZM6.41492 8.66615L9.24389 6.01399L10.6634 7.34475L7.8344 9.99692L6.41492 8.66615ZM15.1717 16.8757L9.24389 11.3183L12.0729 8.66615L18.0007 14.2235V16.8757L15.1717 16.8757Z" fill="#999999"/>
</svg>
