<svg width="20" height="20" viewBox="0 0 20 20" fill="none" xmlns="http://www.w3.org/2000/svg">
<path d="M16.2121 1.6665H3.79445C1.99018 1.6665 0.981909 3.40037 2.20245 4.79822L6.28859 9.63693C6.62508 10.0234 6.8134 10.5195 6.81925 11.0348V14.6907C6.81925 14.9759 6.93107 15.2494 7.13011 15.451C7.32915 15.6527 7.49575 15.7498 7.77723 15.7498C8.05872 15.7498 8.24486 15.6527 8.4439 15.451C8.64294 15.2494 8.77723 14.9759 8.77723 14.6907L8.66699 11.0348C8.66498 10.0119 8.14969 9.02232 7.50033 8.23908L3.33366 3.40037H16.667L12.5003 8.23908C11.859 9.02701 11.3448 10.0136 11.3337 11.0348V17.3415C11.3337 17.6267 11.468 17.8982 11.667 18.0998C11.866 18.3015 12.0522 18.3332 12.3337 18.3332C12.6151 18.3332 12.7283 18.3015 12.9274 18.0998C13.1264 17.8982 13.2382 17.6267 13.2382 17.3415V11.0348C13.2288 10.7775 13.271 10.521 13.3622 10.2808C13.4534 10.0405 13.5918 9.8215 13.7689 9.63693L17.855 4.79822C18.9715 3.40037 18.0163 1.6665 16.2121 1.6665Z" fill="#215732"/>
</svg>
