<svg width="21" height="21" viewBox="0 0 21 21" fill="none" xmlns="http://www.w3.org/2000/svg">
<path d="M16.0065 8C15.4157 7.99609 14.833 7.86135 14.3005 7.60545C13.768 7.34955 13.2987 6.97885 12.9265 6.52L7.8265 8.87C8.06629 9.60425 8.06629 10.3957 7.8265 11.13L12.9265 13.48C13.5281 12.754 14.3668 12.2639 15.2946 12.0962C16.2225 11.9284 17.1797 12.0938 17.9974 12.5631C18.8152 13.0324 19.4409 13.7755 19.764 14.6613C20.0872 15.547 20.0871 16.5184 19.7638 17.4041C19.4405 18.2898 18.8146 19.0328 17.9968 19.5019C17.179 19.9711 16.2217 20.1363 15.2939 19.9684C14.3662 19.8004 13.5275 19.3102 12.926 18.5841C12.3245 17.858 11.9989 16.9428 12.0065 16C12.0095 15.7618 12.0329 15.5242 12.0765 15.29L6.7965 12.86C6.23358 13.4104 5.52074 13.7825 4.7473 13.9296C3.97386 14.0767 3.17422 13.9922 2.44855 13.6869C1.72288 13.3815 1.10346 12.8688 0.667898 12.2129C0.232336 11.5571 0 10.7873 0 10C0 9.2127 0.232336 8.4429 0.667898 7.78706C1.10346 7.13122 1.72288 6.6185 2.44855 6.31313C3.17422 6.00777 3.97386 5.92334 4.7473 6.07043C5.52074 6.21752 6.23358 6.58958 6.7965 7.14L12.0765 4.71C12.0329 4.47577 12.0095 4.23823 12.0065 4C12.0065 3.20887 12.2411 2.43552 12.6806 1.77772C13.1201 1.11992 13.7449 0.607232 14.4758 0.304482C15.2067 0.00173098 16.0109 -0.0774824 16.7869 0.0768585C17.5628 0.231199 18.2755 0.612164 18.8349 1.17157C19.3943 1.73098 19.7753 2.44371 19.9296 3.21964C20.084 3.99556 20.0048 4.79983 19.702 5.53073C19.3993 6.26164 18.8866 6.88635 18.2288 7.32588C17.571 7.7654 16.7976 8 16.0065 8ZM16.0065 18C16.4021 18 16.7887 17.8827 17.1176 17.6629C17.4465 17.4432 17.7029 17.1308 17.8543 16.7654C18.0056 16.3999 18.0452 15.9978 17.9681 15.6098C17.8909 15.2219 17.7004 14.8655 17.4207 14.5858C17.141 14.3061 16.7846 14.1156 16.3967 14.0384C16.0087 13.9613 15.6066 14.0009 15.2411 14.1522C14.8757 14.3036 14.5633 14.56 14.3436 14.8889C14.1238 15.2178 14.0065 15.6044 14.0065 16C14.0065 16.5304 14.2172 17.0391 14.5923 17.4142C14.9674 17.7893 15.4761 18 16.0065 18V18ZM4.0065 8C3.61094 8 3.22426 8.1173 2.89536 8.33706C2.56646 8.55682 2.31011 8.86918 2.15874 9.23463C2.00736 9.60009 1.96776 10.0022 2.04493 10.3902C2.1221 10.7781 2.31258 11.1345 2.59228 11.4142C2.87199 11.6939 3.22836 11.8844 3.61632 11.9616C4.00428 12.0387 4.40641 11.9991 4.77186 11.8478C5.13732 11.6964 5.44967 11.44 5.66944 11.1111C5.8892 10.7822 6.0065 10.3956 6.0065 10C6.0065 9.46957 5.79578 8.96086 5.42071 8.58579C5.04564 8.21071 4.53693 8 4.0065 8ZM16.0065 2C15.6109 2 15.2243 2.1173 14.8954 2.33706C14.5665 2.55682 14.3101 2.86918 14.1587 3.23463C14.0074 3.60008 13.9678 4.00222 14.0449 4.39018C14.1221 4.77814 14.3126 5.13451 14.5923 5.41421C14.872 5.69392 15.2284 5.8844 15.6163 5.96157C16.0043 6.03874 16.4064 5.99913 16.7719 5.84776C17.1373 5.69638 17.4497 5.44004 17.6694 5.11114C17.8892 4.78224 18.0065 4.39556 18.0065 4C18.0065 3.46957 17.7958 2.96086 17.4207 2.58579C17.0456 2.21071 16.5369 2 16.0065 2Z" fill="#215732"/>
</svg>
