<svg width="24" height="24" viewBox="0 0 24 24" fill="none" xmlns="http://www.w3.org/2000/svg">
<path fill-rule="evenodd" clip-rule="evenodd" d="M19.5295 2.90888C16.6842 -0.0878934 10.9889 -0.80784 7.55408 0.929031C2.16513 3.14737 0.132085 8.99693 1.33427 14.923C2.21619 17.1143 5.72063 16.7634 6.16159 14.383C5.98056 11.9847 7.18275 7.99801 3.33018 8.0385C5.18684 1.92346 13.319 -0.26338 18.1835 4.0788C19.3624 5.26221 20.1933 6.41412 20.5971 7.72353C20.7039 7.75052 20.6528 7.98451 20.7364 8.0385C17.8493 7.94851 17.7704 10.3873 17.905 12.4032C17.6497 14.5675 18.3088 16.4124 20.5043 16.4079C19.3253 18.5992 17.0648 19.5217 14.7022 19.3777C14.3634 18.4102 13.5789 17.8073 12.7063 17.6228C11.1792 17.1548 9.73566 18.2707 9.31791 19.4227C8.25497 22.6804 13.3608 24.6333 14.7022 21.1775C19.5156 21.488 23.2011 17.9468 22.9644 13.3931C23.1686 8.96093 22.5559 5.51419 19.5295 2.90888ZM3.46943 9.83837C4.28172 9.78437 4.35599 10.3603 4.30493 11.1433C4.30493 12.1467 4.30493 13.1546 4.30493 14.158C2.64786 15.8454 2.94957 12.6237 2.95885 11.5032C2.97742 10.9003 2.77783 10.0499 3.46943 9.83837ZM12.5671 21.0875C11.0539 21.767 10.5155 19.6566 11.778 19.3327C12.9105 19.1257 13.4397 20.4801 12.5671 21.0875ZM21.1077 14.1131C20.6528 15.076 19.4971 14.5225 19.7616 13.3931C19.938 12.4347 19.3021 10.3153 20.2258 9.83837C20.9452 9.78437 21.1588 10.1893 21.1077 10.9183C21.1077 11.9847 21.1077 13.0511 21.1077 14.1131Z" fill="#BD9B60"/>
</svg>
