<svg width="17" height="16" viewBox="0 0 17 16" fill="none" xmlns="http://www.w3.org/2000/svg">
<path d="M6.30634 5.13977L7.83301 3.60643V9.99977C7.83301 10.1766 7.90325 10.3461 8.02827 10.4712C8.15329 10.5962 8.32286 10.6664 8.49967 10.6664C8.67649 10.6664 8.84605 10.5962 8.97108 10.4712C9.0961 10.3461 9.16634 10.1766 9.16634 9.99977V3.60643L10.693 5.13977C10.755 5.20225 10.8287 5.25185 10.91 5.2857C10.9912 5.31954 11.0783 5.33697 11.1663 5.33697C11.2543 5.33697 11.3415 5.31954 11.4227 5.2857C11.504 5.25185 11.5777 5.20225 11.6397 5.13977C11.7022 5.07779 11.7518 5.00406 11.7856 4.92282C11.8194 4.84158 11.8369 4.75444 11.8369 4.66644C11.8369 4.57843 11.8194 4.49129 11.7856 4.41005C11.7518 4.32881 11.7022 4.25508 11.6397 4.1931L8.97301 1.52643C8.90961 1.46574 8.83484 1.41816 8.75301 1.38643C8.5907 1.31976 8.40865 1.31976 8.24634 1.38643C8.16451 1.41816 8.08974 1.46574 8.02634 1.52643L5.35967 4.1931C5.29752 4.25526 5.24821 4.32905 5.21457 4.41027C5.18093 4.49148 5.16361 4.57853 5.16361 4.66644C5.16361 4.75434 5.18093 4.84139 5.21457 4.9226C5.24821 5.00382 5.29752 5.07761 5.35967 5.13977C5.42183 5.20193 5.49563 5.25123 5.57684 5.28487C5.65806 5.31851 5.7451 5.33583 5.83301 5.33583C5.92091 5.33583 6.00796 5.31851 6.08917 5.28487C6.17039 5.25123 6.24418 5.20193 6.30634 5.13977ZM14.4997 7.99977C14.3229 7.99977 14.1533 8.07001 14.0283 8.19503C13.9032 8.32005 13.833 8.48962 13.833 8.66643V12.6664C13.833 12.8432 13.7628 13.0128 13.6377 13.1378C13.5127 13.2629 13.3432 13.3331 13.1663 13.3331H3.83301C3.6562 13.3331 3.48663 13.2629 3.3616 13.1378C3.23658 13.0128 3.16634 12.8432 3.16634 12.6664V8.66643C3.16634 8.48962 3.0961 8.32005 2.97108 8.19503C2.84605 8.07001 2.67649 7.99977 2.49967 7.99977C2.32286 7.99977 2.15329 8.07001 2.02827 8.19503C1.90325 8.32005 1.83301 8.48962 1.83301 8.66643V12.6664C1.83301 13.1969 2.04372 13.7056 2.41879 14.0806C2.79387 14.4557 3.30257 14.6664 3.83301 14.6664H13.1663C13.6968 14.6664 14.2055 14.4557 14.5806 14.0806C14.9556 13.7056 15.1663 13.1969 15.1663 12.6664V8.66643C15.1663 8.48962 15.0961 8.32005 14.9711 8.19503C14.8461 8.07001 14.6765 7.99977 14.4997 7.99977Z" fill="white"/>
</svg>
