<svg width="24" height="24" viewBox="0 0 24 24" fill="none" xmlns="http://www.w3.org/2000/svg">
<path d="M7.70794 15.292L5.40794 13.002H14.9979C15.2632 13.002 15.5175 12.8966 15.705 12.7091C15.8926 12.5215 15.9979 12.2672 15.9979 12.002C15.9979 11.7367 15.8926 11.4824 15.705 11.2948C15.5175 11.1073 15.2632 11.002 14.9979 11.002H5.40794L7.70794 8.71195C7.80167 8.61899 7.87607 8.50839 7.92683 8.38653C7.9776 8.26467 8.00374 8.13396 8.00374 8.00195C8.00374 7.86994 7.9776 7.73924 7.92683 7.61738C7.87607 7.49552 7.80167 7.38492 7.70794 7.29195C7.61498 7.19823 7.50438 7.12383 7.38252 7.07306C7.26066 7.02229 7.12996 6.99615 6.99794 6.99615C6.86593 6.99615 6.73523 7.02229 6.61337 7.07306C6.49151 7.12383 6.38091 7.19823 6.28794 7.29195L2.28794 11.292C2.1969 11.3871 2.12554 11.4992 2.07794 11.622C1.97793 11.8654 1.97793 12.1385 2.07794 12.382C2.12554 12.5047 2.1969 12.6168 2.28794 12.712L6.28794 16.712C6.38118 16.8052 6.49187 16.8792 6.61369 16.9296C6.73552 16.9801 6.86608 17.006 6.99794 17.006C7.1298 17.006 7.26037 16.9801 7.38219 16.9296C7.50401 16.8792 7.61471 16.8052 7.70794 16.712C7.80118 16.6187 7.87514 16.508 7.9256 16.3862C7.97606 16.2644 8.00203 16.1338 8.00203 16.002C8.00203 15.8701 7.97606 15.7395 7.9256 15.6177C7.87514 15.4959 7.80118 15.3852 7.70794 15.292ZM11.9979 3.00195C11.9979 3.26717 12.1033 3.52152 12.2908 3.70906C12.4784 3.8966 12.7327 4.00195 12.9979 4.00195H18.9979C19.2632 4.00195 19.5175 4.10731 19.7051 4.29485C19.8926 4.48238 19.9979 4.73674 19.9979 5.00195V19.002C19.9979 19.2672 19.8926 19.5215 19.7051 19.7091C19.5175 19.8966 19.2632 20.002 18.9979 20.002H12.9979C12.7327 20.002 12.4784 20.1073 12.2908 20.2948C12.1033 20.4824 11.9979 20.7367 11.9979 21.002C11.9979 21.2672 12.1033 21.5215 12.2908 21.7091C12.4784 21.8966 12.7327 22.002 12.9979 22.002H18.9979C19.7936 22.002 20.5567 21.6859 21.1193 21.1233C21.6819 20.5607 21.9979 19.7976 21.9979 19.002V5.00195C21.9979 4.2063 21.6819 3.44324 21.1193 2.88063C20.5567 2.31802 19.7936 2.00195 18.9979 2.00195H12.9979C12.7327 2.00195 12.4784 2.10731 12.2908 2.29485C12.1033 2.48238 11.9979 2.73674 11.9979 3.00195Z" fill="#BD9B60"/>
</svg>
