<svg width="24" height="28" viewBox="0 0 24 28" fill="none" xmlns="http://www.w3.org/2000/svg">
<path d="M19 4.90332H5C4.20435 4.90332 3.44129 5.25508 2.87868 5.88121C2.31607 6.50734 2 7.35655 2 8.24203V19.3711C2 20.2565 2.31607 21.1058 2.87868 21.7319C3.44129 22.358 4.20435 22.7098 5 22.7098H19C19.7956 22.7098 20.5587 22.358 21.1213 21.7319C21.6839 21.1058 22 20.2565 22 19.3711V8.24203C22 7.35655 21.6839 6.50734 21.1213 5.88121C20.5587 5.25508 19.7956 4.90332 19 4.90332V4.90332ZM5 7.12913H19C19.2652 7.12913 19.5196 7.24638 19.7071 7.45509C19.8946 7.6638 20 7.94687 20 8.24203L12 13.673L4 8.24203C4 7.94687 4.10536 7.6638 4.29289 7.45509C4.48043 7.24638 4.73478 7.12913 5 7.12913V7.12913ZM20 19.3711C20 19.6662 19.8946 19.9493 19.7071 20.158C19.5196 20.3667 19.2652 20.484 19 20.484H5C4.73478 20.484 4.48043 20.3667 4.29289 20.158C4.10536 19.9493 4 19.6662 4 19.3711V10.7794L11.48 15.8654C11.632 15.9631 11.8045 16.0145 11.98 16.0145C12.1555 16.0145 12.328 15.9631 12.48 15.8654L20 10.7794V19.3711Z" fill="#BD9B60"/>
</svg>
