<svg width="28" height="30" viewBox="0 0 28 30" fill="none" xmlns="http://www.w3.org/2000/svg">
<path d="M19 10H5C4.20435 10 3.44129 10.3161 2.87868 10.8787C2.31607 11.4413 2 12.2044 2 13V23C2 23.7956 2.31607 24.5587 2.87868 25.1213C3.44129 25.6839 4.20435 26 5 26H19C19.7956 26 20.5587 25.6839 21.1213 25.1213C21.6839 24.5587 22 23.7956 22 23V13C22 12.2044 21.6839 11.4413 21.1213 10.8787C20.5587 10.3161 19.7956 10 19 10ZM5 12H19C19.2652 12 19.5196 12.1054 19.7071 12.2929C19.8946 12.4804 20 12.7348 20 13L12 17.88L4 13C4 12.7348 4.10536 12.4804 4.29289 12.2929C4.48043 12.1054 4.73478 12 5 12ZM20 23C20 23.2652 19.8946 23.5196 19.7071 23.7071C19.5196 23.8946 19.2652 24 19 24H5C4.73478 24 4.48043 23.8946 4.29289 23.7071C4.10536 23.5196 4 23.2652 4 23V15.28L11.48 19.85C11.632 19.9378 11.8045 19.984 11.98 19.984C12.1555 19.984 12.328 19.9378 12.48 19.85L20 15.28V23Z" fill="#BD9B60"/>
<circle cx="20" cy="9" r="7" fill="#D80000" stroke="white" stroke-width="2"/>
<path d="M22.04 9.26C22.1067 9.26 22.14 9.29333 22.14 9.36V10.02C22.14 10.0867 22.1067 10.12 22.04 10.12H21.61C21.5833 10.12 21.57 10.1333 21.57 10.16V11.9C21.57 11.9667 21.5367 12 21.47 12H20.71C20.6433 12 20.61 11.9667 20.61 11.9V10.16C20.61 10.1333 20.5967 10.12 20.57 10.12H17.53C17.4633 10.12 17.43 10.0867 17.43 10.02V9.48C17.43 9.44667 17.44 9.40667 17.46 9.36L19.43 5.07C19.45 5.02333 19.4867 5 19.54 5H20.34C20.3733 5 20.3967 5.01333 20.41 5.04C20.43 5.06 20.4333 5.08667 20.42 5.12L18.54 9.21C18.5333 9.22333 18.5333 9.23667 18.54 9.25C18.5467 9.25667 18.5567 9.26 18.57 9.26H20.57C20.5967 9.26 20.61 9.24667 20.61 9.22V7.73C20.61 7.66333 20.6433 7.63 20.71 7.63H21.47C21.5367 7.63 21.57 7.66333 21.57 7.73V9.22C21.57 9.24667 21.5833 9.26 21.61 9.26H22.04Z" fill="white"/>
</svg>
