<svg width="21" height="20" viewBox="0 0 21 20" fill="none" xmlns="http://www.w3.org/2000/svg">
<path d="M1.53846 15.4103C1.1453 15.3248 0.790598 15.1453 0.474359 14.8718C0.15812 14.5983 0 14.265 0 13.8718V5.07692C0 4.8718 0.042735 4.67949 0.128205 4.5C0.213675 4.32051 0.376068 4.17094 0.615384 4.05128L8.82051 0L16.6923 4.05128C16.8462 4.17094 17 4.34615 17.1538 4.57692C17.3077 4.80769 17.4103 5.01709 17.4615 5.20513H15.5641L8.82051 1.71795L1.53846 5.33333V15.4103ZM3.84615 19.4872C3.4359 19.4872 3.07692 19.3291 2.76923 19.0128C2.46154 18.6966 2.30769 18.3419 2.30769 17.9487V7.51282C2.30769 7.11966 2.46154 6.76496 2.76923 6.44872C3.07692 6.13248 3.4359 5.97436 3.84615 5.97436H18.9744C19.3675 5.97436 19.7222 6.13248 20.0385 6.44872C20.3547 6.76496 20.5128 7.11966 20.5128 7.51282V17.9487C20.5128 18.3419 20.3547 18.6966 20.0385 19.0128C19.7222 19.3291 19.3675 19.4872 18.9744 19.4872H3.84615ZM11.4103 12.8718L3.84615 9.15385V17.9487H18.9744V9.15385L11.4103 12.8718ZM11.4103 11.1538L18.8205 7.51282H4L11.4103 11.1538ZM18.9744 7.51282H3.84615H18.9744Z" fill="#BD9B60"/>
</svg>
