<svg width="19" height="19" viewBox="0 0 19 19" fill="none" xmlns="http://www.w3.org/2000/svg">
<path d="M18.4607 3.42069L15.5793 0.53936C15.2316 0.19153 14.7691 0 14.2773 0C13.7854 0 13.323 0.19153 12.9752 0.539348L0.913891 12.6006C0.799409 12.7151 0.725611 12.864 0.703858 13.0244L0.00672723 18.1603C-0.0243465 18.3894 0.0533377 18.6198 0.216794 18.7832C0.356513 18.9229 0.545151 19 0.740073 19C0.773141 19 0.806421 18.9978 0.839668 18.9933L5.97554 18.2962C6.136 18.2744 6.28488 18.2006 6.39936 18.0861L18.4607 6.02487C18.8085 5.67707 19 5.21463 19 4.72279C19 4.23091 18.8085 3.76848 18.4607 3.42069ZM5.52916 16.8629L1.60428 17.3957L2.13703 13.4708L10.684 4.92387L14.0761 8.31601L5.52916 16.8629ZM17.414 4.97816L15.1228 7.26932L11.7307 3.87719L14.0218 1.58604C14.1139 1.49398 14.2214 1.48023 14.2773 1.48023C14.3331 1.48023 14.4406 1.49398 14.5327 1.58604L17.414 4.46737C17.5061 4.55941 17.5198 4.6669 17.5198 4.72276C17.5198 4.77862 17.5061 4.88611 17.414 4.97816Z" fill="#BD9B60"/>
</svg>
