<svg width="25" height="29" viewBox="0 0 25 29" fill="none" xmlns="http://www.w3.org/2000/svg">
<path d="M19 9H5C4.20435 9 3.44129 9.31607 2.87868 9.87868C2.31607 10.4413 2 11.2044 2 12V22C2 22.7956 2.31607 23.5587 2.87868 24.1213C3.44129 24.6839 4.20435 25 5 25H19C19.7956 25 20.5587 24.6839 21.1213 24.1213C21.6839 23.5587 22 22.7956 22 22V12C22 11.2044 21.6839 10.4413 21.1213 9.87868C20.5587 9.31607 19.7956 9 19 9V9ZM5 11H19C19.2652 11 19.5196 11.1054 19.7071 11.2929C19.8946 11.4804 20 11.7348 20 12L12 16.88L4 12C4 11.7348 4.10536 11.4804 4.29289 11.2929C4.48043 11.1054 4.73478 11 5 11V11ZM20 22C20 22.2652 19.8946 22.5196 19.7071 22.7071C19.5196 22.8946 19.2652 23 19 23H5C4.73478 23 4.48043 22.8946 4.29289 22.7071C4.10536 22.5196 4 22.2652 4 22V14.28L11.48 18.85C11.632 18.9378 11.8045 18.984 11.98 18.984C12.1555 18.984 12.328 18.9378 12.48 18.85L20 14.28V22Z" fill="white"/>
<circle cx="17" cy="8" r="7" fill="#D80000" stroke="#183028" stroke-width="2"/>
<path d="M19.04 9.26C19.1067 9.26 19.14 9.29333 19.14 9.36V10.02C19.14 10.0867 19.1067 10.12 19.04 10.12H18.61C18.5833 10.12 18.57 10.1333 18.57 10.16V11.9C18.57 11.9667 18.5367 12 18.47 12H17.71C17.6433 12 17.61 11.9667 17.61 11.9V10.16C17.61 10.1333 17.5967 10.12 17.57 10.12H14.53C14.4633 10.12 14.43 10.0867 14.43 10.02V9.48C14.43 9.44667 14.44 9.40667 14.46 9.36L16.43 5.07C16.45 5.02333 16.4867 5 16.54 5H17.34C17.3733 5 17.3967 5.01333 17.41 5.04C17.43 5.06 17.4333 5.08667 17.42 5.12L15.54 9.21C15.5333 9.22333 15.5333 9.23667 15.54 9.25C15.5467 9.25667 15.5567 9.26 15.57 9.26H17.57C17.5967 9.26 17.61 9.24667 17.61 9.22V7.73C17.61 7.66333 17.6433 7.63 17.71 7.63H18.47C18.5367 7.63 18.57 7.66333 18.57 7.73V9.22C18.57 9.24667 18.5833 9.26 18.61 9.26H19.04Z" fill="white"/>
</svg>
