<svg width="24" height="24" viewBox="0 0 24 24" fill="none" xmlns="http://www.w3.org/2000/svg">
<path d="M16.2795 5.49844L9.43767 12.869L6.80619 10.0408C6.66321 9.86134 6.48727 9.71561 6.28941 9.61272C6.09155 9.50984 5.87603 9.45202 5.65639 9.44291C5.43675 9.43379 5.21773 9.47356 5.01307 9.55974C4.80842 9.64591 4.62254 9.77663 4.46712 9.94367C4.31169 10.1107 4.19007 10.3105 4.10989 10.5305C4.02971 10.7504 3.9927 10.9858 4.00119 11.2219C4.00967 11.4579 4.06347 11.6896 4.15919 11.9022C4.25492 12.1149 4.39051 12.304 4.55747 12.4576L8.30534 16.5029C8.45436 16.6618 8.63109 16.7874 8.8254 16.8727C9.01971 16.958 9.22778 17.0013 9.43767 17C9.85606 16.9981 10.257 16.8196 10.5541 16.5029L18.5282 7.93245C18.6777 7.7731 18.7964 7.58352 18.8773 7.37464C18.9583 7.16577 19 6.94173 19 6.71545C19 6.48917 18.9583 6.26513 18.8773 6.05625C18.7964 5.84737 18.6777 5.65779 18.5282 5.49844C18.2294 5.17919 17.8252 5 17.4039 5C16.9826 5 16.5783 5.17919 16.2795 5.49844Z" fill="#222222" fill-opacity="0.7"/>
</svg>
