<svg width="16" height="16" viewBox="0 0 16 16" fill="none" xmlns="http://www.w3.org/2000/svg">
<path d="M1.33398 4.33317C1.33398 3.96498 1.63246 3.6665 2.00065 3.6665H14.0007C14.3688 3.6665 14.6673 3.96498 14.6673 4.33317C14.6673 4.70136 14.3688 4.99984 14.0007 4.99984H2.00065C1.63246 4.99984 1.33398 4.70136 1.33398 4.33317Z" fill="#222222"/>
<path d="M3.33398 7.99984C3.33398 7.63165 3.63246 7.33317 4.00065 7.33317H12.0007C12.3688 7.33317 12.6673 7.63165 12.6673 7.99984C12.6673 8.36803 12.3688 8.6665 12.0007 8.6665H4.00065C3.63246 8.6665 3.33398 8.36803 3.33398 7.99984Z" fill="#222222"/>
<path d="M6.00065 11.6665C6.00065 11.2983 6.29913 10.9998 6.66732 10.9998H9.33398C9.70217 10.9998 10.0007 11.2983 10.0007 11.6665C10.0007 12.0347 9.70217 12.3332 9.33398 12.3332H6.66732C6.29913 12.3332 6.00065 12.0347 6.00065 11.6665Z" fill="#222222"/>
</svg>
