<svg width="18" height="18" viewBox="0 0 18 18" fill="none" xmlns="http://www.w3.org/2000/svg">
<path fill-rule="evenodd" clip-rule="evenodd" d="M6.6923 5.18176C6.18615 5.18176 5.70072 5.38283 5.34282 5.74073C4.98491 6.09865 4.78384 6.58407 4.78384 7.09023C4.78384 7.59638 4.98491 8.08181 5.34282 8.43972C5.70072 8.79762 6.18615 8.9987 6.6923 8.9987C7.19846 8.9987 7.68389 8.79762 8.0418 8.43972C8.3997 8.08181 8.60077 7.59638 8.60077 7.09023C8.60077 6.58407 8.3997 6.09865 8.0418 5.74073C7.68389 5.38283 7.19846 5.18176 6.6923 5.18176ZM3.35249 7.09023C3.35242 6.53665 3.48995 5.99173 3.75272 5.50449C4.01549 5.01726 4.39524 4.60298 4.85784 4.29891C5.32043 3.99485 5.85136 3.81054 6.40285 3.76257C6.95435 3.71459 7.50912 3.80445 8.01727 4.02406C8.52542 4.24367 8.97101 4.58615 9.31397 5.0207C9.65693 5.45524 9.8865 5.96821 9.98202 6.51348C10.0776 7.05876 10.036 7.61923 9.86123 8.14448C9.68642 8.66972 9.38379 9.14329 8.98056 9.52257C9.74095 9.89146 10.4011 10.4383 10.9051 11.1167C11.4092 11.7952 11.7421 12.5852 11.8757 13.4197C11.9055 13.6072 11.8595 13.7989 11.7478 13.9525C11.6363 14.1061 11.4683 14.2091 11.2807 14.2389C11.0932 14.2686 10.9015 14.2226 10.7479 14.111C10.5943 13.9995 10.4913 13.8314 10.4615 13.6439C10.3171 12.7483 9.8585 11.9333 9.16782 11.345C8.47714 10.7567 7.59954 10.4337 6.6923 10.4337C5.78507 10.4337 4.90748 10.7567 4.21679 11.345C3.52611 11.9333 3.06748 12.7483 2.92308 13.6439C2.9083 13.7368 2.87536 13.8258 2.82617 13.9059C2.77697 13.9861 2.71247 14.0558 2.63636 14.1109C2.56024 14.1662 2.474 14.2058 2.38256 14.2276C2.29111 14.2496 2.19625 14.2532 2.1034 14.2384C2.01054 14.2236 1.92151 14.1907 1.84138 14.1414C1.76125 14.0923 1.69159 14.0278 1.63639 13.9516C1.58119 13.8756 1.54152 13.7893 1.51964 13.6978C1.49777 13.6064 1.49412 13.5116 1.50891 13.4187C1.64282 12.5845 1.97589 11.795 2.47987 11.1169C2.98386 10.4388 3.6439 9.89224 4.40405 9.52352C4.07153 9.21153 3.80662 8.83457 3.62574 8.41601C3.44486 7.99745 3.35185 7.5462 3.35249 7.09023ZM11.9406 5.65888C11.7508 5.65888 11.5687 5.73427 11.4346 5.8685C11.3003 6.00271 11.2249 6.18474 11.2249 6.37455C11.2249 6.56436 11.3003 6.74639 11.4346 6.88061C11.5687 7.01483 11.7508 7.09023 11.9406 7.09023C12.2634 7.09025 12.5768 7.19942 12.8298 7.40002C13.0828 7.60062 13.2606 7.88085 13.3342 8.19521C13.4077 8.50957 13.3729 8.8396 13.2353 9.13166C13.0977 9.42373 12.8654 9.6607 12.5761 9.80407C12.4568 9.8634 12.3565 9.95487 12.2863 10.0682C12.2162 10.1814 12.1791 10.3121 12.1792 10.4453V10.7812C12.179 10.942 12.2329 11.0981 12.3322 11.2245C12.4316 11.3508 12.5706 11.4401 12.7269 11.4778C13.872 11.7536 14.7899 12.6229 15.1335 13.7412C15.1607 13.8314 15.2055 13.9154 15.2652 13.9883C15.3251 14.0611 15.3986 14.1215 15.4819 14.1659C15.565 14.2101 15.6561 14.2376 15.7499 14.2467C15.8437 14.2558 15.9384 14.2461 16.0285 14.2185C16.1186 14.1909 16.2024 14.1457 16.2749 14.0856C16.3475 14.0255 16.4076 13.9516 16.4515 13.8682C16.4955 13.7849 16.5226 13.6937 16.5312 13.5998C16.5399 13.506 16.5299 13.4114 16.5018 13.3214C16.3108 12.7017 15.9957 12.1273 15.5757 11.6333C15.1558 11.1392 14.6397 10.7357 14.059 10.4472C14.432 10.0368 14.6779 9.52693 14.7666 8.97947C14.8553 8.43201 14.7831 7.87056 14.5587 7.36338C14.3343 6.85619 13.9674 6.42511 13.5027 6.12251C13.0379 5.81992 12.4952 5.65884 11.9406 5.65888Z" fill="#999999"/>
</svg>
