<svg width="28" height="28" viewBox="0 0 28 28" fill="none" xmlns="http://www.w3.org/2000/svg">
<path d="M17.1733 10.2552L12.1683 15.2718L10.2433 13.3468C10.1387 13.2247 10.01 13.1255 9.86522 13.0555C9.72048 12.9855 9.56282 12.9461 9.40215 12.9399C9.24148 12.9337 9.08126 12.9608 8.93155 13.0194C8.78183 13.0781 8.64586 13.167 8.53216 13.2807C8.41847 13.3944 8.3295 13.5304 8.27085 13.6801C8.21219 13.8298 8.18512 13.9901 8.19133 14.1507C8.19753 14.3114 8.23688 14.4691 8.30691 14.6138C8.37694 14.7585 8.47613 14.8872 8.59826 14.9918L11.3399 17.7452C11.4489 17.8533 11.5782 17.9388 11.7204 17.9969C11.8625 18.055 12.0147 18.0844 12.1683 18.0835C12.4743 18.0822 12.7676 17.9607 12.9849 17.7452L18.8183 11.9118C18.9276 11.8034 19.0144 11.6743 19.0736 11.5322C19.1329 11.39 19.1634 11.2375 19.1634 11.0835C19.1634 10.9295 19.1329 10.777 19.0736 10.6348C19.0144 10.4927 18.9276 10.3636 18.8183 10.2552C18.5997 10.0379 18.304 9.9159 17.9958 9.9159C17.6875 9.9159 17.3918 10.0379 17.1733 10.2552ZM13.9999 2.3335C11.6925 2.3335 9.43684 3.01773 7.51827 4.29968C5.5997 5.58163 4.10435 7.40372 3.22133 9.53552C2.33831 11.6673 2.10727 14.0131 2.55743 16.2762C3.00759 18.5393 4.11873 20.6181 5.75034 22.2497C7.38196 23.8814 9.46076 24.9925 11.7239 25.4427C13.987 25.8928 16.3328 25.6618 18.4646 24.7788C20.5964 23.8957 22.4185 22.4004 23.7004 20.4818C24.9824 18.5632 25.6666 16.3076 25.6666 14.0002C25.6666 12.4681 25.3648 10.951 24.7785 9.53552C24.1922 8.12006 23.3329 6.83393 22.2495 5.75058C21.1662 4.66723 19.88 3.80787 18.4646 3.22157C17.0491 2.63526 15.532 2.3335 13.9999 2.3335ZM13.9999 23.3335C12.154 23.3335 10.3495 22.7861 8.8146 21.7605C7.27974 20.735 6.08347 19.2773 5.37705 17.5719C4.67063 15.8664 4.4858 13.9898 4.84593 12.1793C5.20606 10.3688 6.09497 8.70579 7.40026 7.4005C8.70555 6.09521 10.3686 5.2063 12.1791 4.84617C13.9896 4.48604 15.8662 4.67087 17.5716 5.37729C19.2771 6.08371 20.7347 7.27998 21.7603 8.81484C22.7859 10.3497 23.3333 12.1542 23.3333 14.0002C23.3333 16.4755 22.3499 18.8495 20.5996 20.5998C18.8492 22.3502 16.4753 23.3335 13.9999 23.3335Z" fill="#BD9B60"/>
</svg>
