<svg width="28" height="28" viewBox="0 0 28 28" fill="none" xmlns="http://www.w3.org/2000/svg">
<path d="M11.6628 11.2928C11.4765 11.1373 11.4629 10.9196 11.163 10.8485C11.0676 10.7596 10.8177 10.7551 10.6177 10.7596V10.804H10.436C10.277 10.9862 10.0543 10.9995 9.98162 11.2928H9.93618C9.9271 11.5505 9.87712 11.7327 9.93618 12.0038C10.1225 12.1593 10.1361 12.377 10.436 12.4481V12.4926C10.6995 12.5015 10.8858 12.5503 11.163 12.4926C11.322 12.3104 11.5447 12.2971 11.6174 12.0038H11.6628C11.6719 11.7461 11.7219 11.5639 11.6628 11.2928Z" fill="#BD9B60"/>
<path d="M7.70975 15.1587C7.52345 15.0032 7.50982 14.7854 7.20993 14.7144C7.11452 14.6255 6.86461 14.621 6.66468 14.6255V14.6699H6.48293C6.3239 14.8521 6.10126 14.8654 6.02856 15.1587H5.98312C5.97403 15.4164 5.92405 15.5986 5.98312 15.8697C6.16942 16.0252 6.18305 16.2429 6.48293 16.314V16.3585C6.74647 16.3674 6.93277 16.4162 7.20993 16.3585C7.36897 16.1763 7.59161 16.163 7.66431 15.8697H7.70975C7.71883 15.612 7.76882 15.4298 7.70975 15.1587Z" fill="#BD9B60"/>
<path d="M11.6628 15.1587C11.4765 15.0032 11.4629 14.7854 11.163 14.7144C11.0676 14.6255 10.8177 14.621 10.6177 14.6255V14.6699H10.436C10.277 14.8521 10.0543 14.8654 9.98162 15.1587H9.93618C9.9271 15.4164 9.87712 15.5986 9.93618 15.8697C10.1225 16.0252 10.1361 16.2429 10.436 16.314V16.3585C10.6995 16.3674 10.8858 16.4162 11.163 16.3585C11.322 16.1763 11.5447 16.163 11.6174 15.8697H11.6628C11.6719 15.612 11.7219 15.4298 11.6628 15.1587Z" fill="#BD9B60"/>
<path d="M7.20993 20.2244C7.36897 20.0422 7.59161 20.0289 7.66431 19.7356H7.70975C7.71883 19.4778 7.76882 19.2957 7.70975 19.0246C7.52345 18.8691 7.50982 18.6513 7.20993 18.5802C7.11452 18.4914 6.86461 18.4869 6.66468 18.4914V18.5358H6.48293C6.3239 18.718 6.10126 18.7313 6.02856 19.0246H5.98312C5.97403 19.2823 5.92405 19.4645 5.98312 19.7356C6.16942 19.8911 6.18305 20.1088 6.48293 20.1799V20.2244C6.74647 20.2333 6.93277 20.2821 7.20993 20.2244Z" fill="#BD9B60"/>
<path d="M17.7969 5.87167V6.93813H17.8423V7.11587C18.0286 7.27139 18.0422 7.48913 18.3421 7.56022V7.60466C18.6057 7.61355 18.792 7.66243 19.0691 7.60466C19.2282 7.42247 19.4508 7.40914 19.5235 7.11587C19.6734 6.96034 19.6235 6.19161 19.6144 5.87167C21.0547 5.82279 21.6454 5.88945 22.3406 6.67151C22.6678 7.1603 22.6132 7.99569 22.6132 8.80442C22.6132 10.2175 22.6042 11.7327 22.6587 13.0702C22.845 13.2258 22.8586 13.4435 23.1585 13.5146V13.559C23.422 13.5679 23.6083 13.6168 23.8855 13.559C24.0445 13.3768 24.2672 13.3635 24.3399 13.0702C24.4489 12.9547 24.4307 12.6748 24.4307 12.4481V7.24918H24.3853V6.98256H24.349C24.3353 6.86259 24.3172 6.74705 24.3035 6.62708C24.1854 6.59597 24.2217 6.33825 24.1672 6.22716C24.0445 6.26271 24.1309 6.0272 24.0218 6.04941C24.0354 5.96943 24.0036 5.93833 23.9309 5.91611C23.9037 5.82279 23.9082 5.72059 23.7946 5.69393C23.6629 5.50286 23.5902 5.32067 23.3857 5.20514C23.3857 5.17403 23.3857 5.14737 23.3857 5.11627C23.2494 5.06294 23.0994 4.97407 23.0676 4.84965C22.9631 4.87632 22.9359 4.78744 22.8859 4.71635C22.8041 4.72968 22.7768 4.69857 22.7496 4.62748C22.6905 4.61415 22.6269 4.59637 22.5678 4.58304C22.5405 4.51194 22.5133 4.48084 22.4315 4.49417C22.4588 4.39197 22.2497 4.45862 22.2497 4.37864C22.1589 4.36531 22.068 4.34753 21.9771 4.3342C21.6727 3.98316 20.3005 4.11202 19.6144 4.09425V3.0278H19.5689V2.85005C19.3826 2.69453 19.369 2.47679 19.0691 2.4057V2.36126C18.8056 2.35237 18.6193 2.3035 18.3421 2.36126C18.1831 2.54345 17.9604 2.55678 17.8877 2.85005C17.7378 3.00558 17.7878 3.77431 17.7969 4.09425H13.6621V3.0278H13.6166V2.85005C13.4303 2.69453 13.4167 2.47679 13.1168 2.4057V2.36126C12.8533 2.35237 12.667 2.3035 12.3898 2.36126C12.2308 2.54345 12.0081 2.55678 11.9354 2.85005C11.7855 3.00558 11.8355 3.77431 11.8446 4.09425H7.75518V3.0278H7.70975V2.85005C7.52345 2.69453 7.50982 2.47679 7.20993 2.4057V2.36126C6.9464 2.35237 6.7601 2.3035 6.48293 2.36126C6.3239 2.54345 6.10126 2.55678 6.02856 2.85005C5.87862 3.00558 5.9286 3.77431 5.93769 4.09425H4.39281V4.13868H4.12019V4.18312H3.93844V4.22756H3.75669V4.27199H3.62037V4.31643H3.48406C3.43862 4.47195 3.07512 4.38752 3.02969 4.58304C2.93427 4.6097 2.82976 4.60526 2.8025 4.71635C2.60712 4.84521 2.42082 4.91631 2.30269 5.11627C2.27088 5.11627 2.24362 5.11627 2.21181 5.11627C2.15729 5.24957 2.06641 5.39621 1.93919 5.42732C1.96645 5.52952 1.87557 5.55618 1.80287 5.60506C1.8165 5.68504 1.7847 5.7117 1.712 5.73837C1.69837 5.79613 1.68019 5.85834 1.66656 5.91611C1.59386 5.94277 1.56205 5.96943 1.57569 6.04941C1.47118 6.02275 1.54388 6.24049 1.44846 6.22716C1.39848 6.32492 1.4212 6.64041 1.30306 6.62708C1.28943 6.74705 1.27125 6.86259 1.25762 6.98256H1.21219V7.24918H1.16675V21.9129H1.21219V22.1795H1.25762V22.3573H1.30306V22.535H1.3485V22.6683H1.39394V22.8016H1.43937V22.9349C1.54842 22.9127 1.46664 23.1349 1.57569 23.1127C1.56205 23.1927 1.59386 23.2238 1.66656 23.246C1.69382 23.3393 1.68928 23.4415 1.80287 23.4682C1.93464 23.6592 2.00734 23.8414 2.21181 23.957C2.21181 23.9881 2.21181 24.0147 2.21181 24.0458C2.34812 24.0991 2.49807 24.188 2.52987 24.3124C2.63438 24.2858 2.66164 24.3746 2.71162 24.4457C2.79341 24.4324 2.82067 24.4635 2.84794 24.5346C2.907 24.5479 2.97062 24.5657 3.02969 24.5791C3.05695 24.6502 3.08421 24.6813 3.166 24.6679C3.14782 24.779 3.38864 24.6857 3.34775 24.819C3.48406 24.8501 3.62037 24.8768 3.75669 24.9079C3.75669 24.9212 3.75669 24.9168 3.75669 24.9345C3.87937 24.9479 3.9975 24.9656 4.12019 24.979V25.0234H4.39281V25.0678C6.92822 25.0456 9.63175 25.1345 12.1172 25.0234C12.2762 24.8412 12.4989 24.8279 12.5716 24.5346H12.617C12.6261 24.2769 12.6761 24.0947 12.617 23.8236C12.4307 23.6681 12.4171 23.4504 12.1172 23.3793C11.9945 23.2682 11.6764 23.2904 11.4356 23.2904H6.02856C4.72905 23.2949 3.73397 23.3526 3.25687 22.4017C3.14782 22.4239 3.22961 22.2017 3.12056 22.224C3.10693 22.1351 3.08875 22.0462 3.07512 21.9574C2.83885 21.7085 3.01605 20.9531 2.98425 20.5354V9.91531C2.98425 9.08436 2.98425 8.25786 2.98425 7.42692C3.1251 7.01367 3.21144 6.58709 3.57494 6.36046C3.6022 6.28492 3.62946 6.26271 3.71125 6.27159C3.76123 6.2005 3.78849 6.11607 3.893 6.13829C3.893 6.0583 4.10201 6.12495 4.07475 6.02275C4.16562 6.00942 4.2565 5.99165 4.34737 5.97832C4.4019 5.72948 5.61962 5.89389 5.93769 5.87167V6.93813H5.98312V7.11587C6.16942 7.27139 6.18305 7.48913 6.48293 7.56022V7.60466C6.74647 7.61355 6.93277 7.66243 7.20993 7.60466C7.36897 7.42247 7.59161 7.40914 7.66431 7.11587C7.81425 6.96034 7.76427 6.19161 7.75518 5.87167H11.8446V6.93813H11.89V7.11587C12.0763 7.27139 12.0899 7.48913 12.3898 7.56022V7.60466C12.6533 7.61355 12.8396 7.66243 13.1168 7.60466C13.2758 7.42247 13.4985 7.40914 13.5712 7.11587C13.7211 6.96034 13.6711 6.19161 13.6621 5.87167H17.7969Z" fill="#BD9B60"/>
<path d="M11.163 20.2244C11.322 20.0422 11.5447 20.0289 11.6174 19.7356H11.6628C11.6719 19.4778 11.7219 19.2957 11.6628 19.0246C11.4765 18.8691 11.4629 18.6513 11.163 18.5802C11.0676 18.4914 10.8177 18.4869 10.6177 18.4914V18.5358H10.436C10.277 18.718 10.0543 18.7313 9.98162 19.0246H9.93618C9.9271 19.2823 9.87712 19.4645 9.93618 19.7356C10.1225 19.8911 10.1361 20.1088 10.436 20.1799V20.2244C10.6995 20.2333 10.8858 20.2821 11.163 20.2244Z" fill="#BD9B60"/>
<path d="M7.70975 11.2928C7.52345 11.1373 7.50982 10.9196 7.20993 10.8485C7.11452 10.7596 6.86461 10.7551 6.66468 10.7596V10.804H6.48293C6.3239 10.9862 6.10126 10.9995 6.02856 11.2928H5.98312C5.97403 11.5505 5.92405 11.7327 5.98312 12.0038C6.16942 12.1593 6.18305 12.377 6.48293 12.4481V12.4926C6.74647 12.5015 6.93277 12.5503 7.20993 12.4926C7.36897 12.3104 7.59161 12.2971 7.66431 12.0038H7.70975C7.71883 11.7461 7.76882 11.5639 7.70975 11.2928Z" fill="#BD9B60"/>
<path d="M14.3891 12.4481V12.4926C14.6526 12.5015 14.8389 12.5503 15.1161 12.4926C15.2751 12.3104 15.4977 12.2971 15.5704 12.0038H15.6159C15.625 11.7461 15.6749 11.5639 15.6159 11.2928C15.4296 11.1373 15.4159 10.9196 15.1161 10.8485C15.0206 10.7596 14.7707 10.7551 14.5708 10.7596V10.804H14.3891C14.23 10.9862 14.0074 10.9995 13.9347 11.2928H13.8892C13.8802 11.5505 13.8302 11.7327 13.8892 12.0038C14.0755 12.1593 14.0892 12.377 14.3891 12.4481Z" fill="#BD9B60"/>
<path d="M26.8099 16.96C26.7658 16.8262 26.6855 16.7086 26.5788 16.6216C26.4721 16.5346 26.3435 16.4818 26.2088 16.4698L22.2312 15.8625L20.4486 12.0796C20.3913 11.9559 20.302 11.8515 20.1907 11.7785C20.0794 11.7055 19.9508 11.6668 19.8194 11.6668C19.6881 11.6668 19.5595 11.7055 19.4482 11.7785C19.3369 11.8515 19.2475 11.9559 19.1903 12.0796L17.4077 15.8551L13.4301 16.4698C13.3008 16.489 13.1791 16.5458 13.079 16.6338C12.979 16.7217 12.9044 16.8373 12.8639 16.9673C12.8268 17.0944 12.8235 17.2296 12.8543 17.3585C12.8851 17.4875 12.9488 17.6052 13.0387 17.699L15.9257 20.6258L15.2267 24.7818C15.1985 24.9197 15.2089 25.0632 15.2567 25.195C15.3046 25.3268 15.3878 25.4413 15.4963 25.5248C15.6049 25.6083 15.7342 25.6571 15.8687 25.6655C16.0031 25.6739 16.137 25.6415 16.2543 25.5721L19.8194 23.6184L23.3846 25.5721C23.4827 25.63 23.5935 25.6603 23.7062 25.6599C23.8542 25.6604 23.9987 25.6117 24.1186 25.5208C24.2271 25.4395 24.311 25.3274 24.3606 25.1978C24.4101 25.0681 24.4232 24.9263 24.3982 24.7891L23.6992 20.6331L26.5862 17.7063C26.6872 17.6168 26.7618 17.4992 26.8014 17.3671C26.841 17.235 26.8439 17.0938 26.8099 16.96Z" fill="#BD9B60"/>
</svg>
