<svg width="28" height="28" viewBox="0 0 28 28" fill="none" xmlns="http://www.w3.org/2000/svg">
<path d="M24.4999 16.3335H23.3333V4.66683H24.4999C24.8093 4.66683 25.1061 4.54391 25.3249 4.32512C25.5437 4.10633 25.6666 3.80958 25.6666 3.50016C25.6666 3.19074 25.5437 2.894 25.3249 2.6752C25.1061 2.45641 24.8093 2.3335 24.4999 2.3335H3.49992C3.1905 2.3335 2.89375 2.45641 2.67496 2.6752C2.45617 2.894 2.33325 3.19074 2.33325 3.50016C2.33325 3.80958 2.45617 4.10633 2.67496 4.32512C2.89375 4.54391 3.1905 4.66683 3.49992 4.66683H4.66659V16.3335H3.49992C3.1905 16.3335 2.89375 16.4564 2.67496 16.6752C2.45617 16.894 2.33325 17.1907 2.33325 17.5002C2.33325 17.8096 2.45617 18.1063 2.67496 18.3251C2.89375 18.5439 3.1905 18.6668 3.49992 18.6668H12.8333V20.0085L7.52492 23.5085C7.30714 23.6433 7.13978 23.846 7.04865 24.0854C6.95752 24.3248 6.94769 24.5875 7.02068 24.833C7.09367 25.0785 7.24541 25.2931 7.45251 25.4438C7.6596 25.5945 7.91053 25.6729 8.16658 25.6668C8.39595 25.6695 8.62037 25.6001 8.80825 25.4685L12.8333 22.8085V24.5002C12.8333 24.8096 12.9562 25.1063 13.175 25.3251C13.3938 25.5439 13.6905 25.6668 13.9999 25.6668C14.3093 25.6668 14.6061 25.5439 14.8249 25.3251C15.0437 25.1063 15.1666 24.8096 15.1666 24.5002V22.8085L19.1916 25.4685C19.3795 25.6001 19.6039 25.6695 19.8333 25.6668C20.0825 25.6649 20.3246 25.5832 20.524 25.4337C20.7235 25.2842 20.8698 25.0747 20.9415 24.836C21.0133 24.5973 21.0067 24.3419 20.9227 24.1072C20.8387 23.8725 20.6818 23.6708 20.4749 23.5318L15.1666 20.0318V18.6668H24.4999C24.8093 18.6668 25.1061 18.5439 25.3249 18.3251C25.5437 18.1063 25.6666 17.8096 25.6666 17.5002C25.6666 17.1907 25.5437 16.894 25.3249 16.6752C25.1061 16.4564 24.8093 16.3335 24.4999 16.3335ZM20.9999 16.3335H6.99992V4.66683H20.9999V16.3335ZM11.2116 14.3035C11.5225 14.4872 11.8771 14.5841 12.2383 14.5841C12.5994 14.5841 12.954 14.4872 13.2649 14.3035L16.7649 12.2735C17.0641 12.0898 17.3113 11.8325 17.4827 11.5262C17.6541 11.2198 17.7442 10.8746 17.7442 10.5235C17.7442 10.1724 17.6541 9.8272 17.4827 9.52082C17.3113 9.21445 17.0641 8.95715 16.7649 8.7735L13.2649 6.7435C12.954 6.55978 12.5994 6.46287 12.2383 6.46287C11.8771 6.46287 11.5225 6.55978 11.2116 6.7435C10.8983 6.92013 10.6385 7.17819 10.4598 7.49036C10.2811 7.80253 10.1902 8.1572 10.1966 8.51683V12.5768C10.1985 12.9286 10.2934 13.2735 10.4717 13.5768C10.6499 13.88 10.9052 14.1307 11.2116 14.3035ZM12.5299 8.96016L15.1666 10.5002L12.5066 12.0402L12.5299 8.96016Z" fill="#BD9B60"/>
</svg>
