<svg width="28" height="28" viewBox="0 0 28 28" fill="none" xmlns="http://www.w3.org/2000/svg">
<path fill-rule="evenodd" clip-rule="evenodd" d="M10.4102 8.06068C9.62282 8.06068 8.86771 8.37345 8.31097 8.93019C7.75423 9.48695 7.44144 10.242 7.44144 11.0294C7.44144 11.8168 7.75423 12.5719 8.31097 13.1286C8.86771 13.6853 9.62282 13.9981 10.4102 13.9981C11.1975 13.9981 11.9526 13.6853 12.5094 13.1286C13.0661 12.5719 13.3789 11.8168 13.3789 11.0294C13.3789 10.242 13.0661 9.48695 12.5094 8.93019C11.9526 8.37345 11.1975 8.06068 10.4102 8.06068ZM5.2149 11.0294C5.21479 10.1683 5.42874 9.32064 5.83749 8.56271C6.24623 7.80479 6.83697 7.16036 7.55656 6.68736C8.27614 6.21437 9.10203 5.92767 9.9599 5.85305C10.8178 5.77841 11.6808 5.9182 12.4712 6.25981C13.2617 6.60143 13.9548 7.13417 14.4883 7.81014C15.0218 8.48608 15.3789 9.28405 15.5275 10.1322C15.6761 10.9805 15.6115 11.8523 15.3396 12.6693C15.0677 13.4864 14.5969 14.2231 13.9697 14.813C15.1525 15.3869 16.1795 16.2375 16.9635 17.2929C17.7475 18.3482 18.2654 19.5771 18.4732 20.8752C18.5196 21.1669 18.448 21.4651 18.2743 21.7041C18.1008 21.943 17.8394 22.1032 17.5477 22.1495C17.2561 22.1958 16.9579 22.1243 16.7189 21.9506C16.4799 21.7771 16.3197 21.5157 16.2734 21.224C16.0488 19.8308 15.3354 18.563 14.261 17.6479C13.1866 16.7329 11.8214 16.2303 10.4102 16.2303C8.99891 16.2303 7.63377 16.7329 6.55938 17.6479C5.48498 18.563 4.77155 19.8308 4.54694 21.224C4.52394 21.3684 4.4727 21.5069 4.39618 21.6316C4.31965 21.7563 4.21932 21.8647 4.10093 21.9505C3.98252 22.0364 3.84836 22.098 3.70612 22.132C3.56387 22.1661 3.41631 22.1718 3.27187 22.1488C3.12743 22.1258 2.98893 22.0746 2.86428 21.998C2.73964 21.9215 2.63129 21.8212 2.54542 21.7027C2.45954 21.5844 2.39783 21.4502 2.36381 21.3079C2.32978 21.1657 2.32411 21.0181 2.34711 20.8737C2.55542 19.5761 3.07352 18.3479 3.85749 17.2931C4.64147 16.2383 5.66821 15.3881 6.85067 14.8145C6.33341 14.3292 5.92132 13.7428 5.63996 13.0917C5.35858 12.4406 5.2139 11.7387 5.2149 11.0294ZM18.5742 8.80286C18.2789 8.80286 17.9957 8.92014 17.787 9.12893C17.5782 9.33771 17.4609 9.62087 17.4609 9.91614C17.4609 10.2114 17.5782 10.4945 17.787 10.7033C17.9957 10.9121 18.2789 11.0294 18.5742 11.0294C19.0763 11.0294 19.5638 11.1993 19.9575 11.5113C20.351 11.8233 20.6275 12.2593 20.7419 12.7483C20.8564 13.2373 20.8022 13.7506 20.5882 14.205C20.3741 14.6593 20.0128 15.0279 19.5628 15.2509C19.3772 15.3432 19.2211 15.4855 19.112 15.6617C19.0029 15.838 18.9451 16.0412 18.9453 16.2484V16.7709C18.945 17.021 19.0288 17.2639 19.1834 17.4604C19.3379 17.657 19.5542 17.7959 19.7973 17.8545C21.5785 18.2835 23.0065 19.6357 23.5409 21.3754C23.5832 21.5157 23.6529 21.6463 23.7459 21.7597C23.8389 21.873 23.9534 21.9669 24.0828 22.036C24.2121 22.1048 24.3538 22.1476 24.4998 22.1617C24.6457 22.1758 24.7929 22.1608 24.9332 22.1179C25.0733 22.0749 25.2036 22.0046 25.3165 21.9111C25.4294 21.8176 25.5228 21.7027 25.5912 21.573C25.6596 21.4434 25.7018 21.3015 25.7152 21.1554C25.7287 21.0095 25.7131 20.8623 25.6694 20.7223C25.3723 19.7584 24.8821 18.8649 24.2289 18.0965C23.5756 17.3278 22.7729 16.7001 21.8695 16.2514C22.4497 15.613 22.8322 14.8198 22.9701 13.9682C23.1082 13.1166 22.9958 12.2433 22.6468 11.4543C22.2977 10.6654 21.727 9.99478 21.0041 9.52407C20.2811 9.05336 19.4369 8.8028 18.5742 8.80286Z" fill="#BD9B60"/>
</svg>
